<svg xmlns="http://www.w3.org/2000/svg" xmlns:xlink="http://www.w3.org/1999/xlink" xmlns:lucid="lucid" width="1612.53" height="1763.31"><g transform="translate(-20 -19.999999999999986)" lucid:page-tab-id="0_0"><path d="M42.26 1583.88c0-14.9 12.1-27 27-27h1181.88c14.92 0 27 12.1 27 27v152.43c0 14.92-12.08 27-27 27H69.26c-14.9 0-27-12.08-27-27z" stroke="#000" stroke-width="2" fill="#e5e5e5"/><use xlink:href="#a" transform="matrix(1,0,0,1,47.25762045231056,1561.8829406153804) translate(487.775 14.4)"/><use xlink:href="#b" transform="matrix(1,0,0,1,47.25762045231056,1561.8829406153804) translate(559.625 14.4)"/><use xlink:href="#c" transform="matrix(1,0,0,1,47.25762045231056,1561.8829406153804) translate(590.625 14.4)"/><use xlink:href="#d" transform="matrix(1,0,0,1,47.25762045231056,1561.8829406153804) translate(652.425 14.4)"/><use xlink:href="#e" transform="matrix(1,0,0,1,47.25762045231056,1561.8829406153804) translate(669.425 14.4)"/><path d="M477.66 1683.6h773.07v59.7H477.66z" stroke="#000" stroke-width="2" fill="#d1bcd2"/><use xlink:href="#f" transform="matrix(1,0,0,1,482.6558505408063,1688.587554156423) translate(365 28.6)"/><path d="M72.9 1615.63h376.7v127.68H72.9z" fill="#999"/><path d="M83.44 1615.63h9.05m6 0h9.05m6.03 0h9.04m6.03 0h9.04m6.02 0h9.04m6.02 0h9.05m6.02 0h9.04m6.02 0h9.04m6.03 0h9.03m6.03 0h9.04m6.02 0h9.05m6.02 0h9.03m6.03 0h9.04m6.03 0h9.04m6.03 0h9.04m6.02 0h9.05m6.03 0h9.04m6.03 0h9.04m6.03 0h9.04m6.04 0h9.04m6.02 0h9.05m6.02 0h9.04m6.04 0h9.04m6.03 0h9.05m6.03 0h4.52v4.26m0 5.66v8.5m0 5.7v8.5m0 5.67v8.5m0 5.7v8.5m0 5.68v8.52m0 5.67v8.5m0 5.68v8.5m0 5.68v8.52m0 5.67v4.26h-4.52m-6.03 0H430m-6.02 0h-9.04m-6.03 0h-9.03m-6.02 0h-9.05m-6.02 0h-9.04m-6.03 0h-9.03m-6.03 0h-9.04m-6.03 0h-9.04m-6.02 0h-9.04m-6.02 0h-9.04m-6.03 0h-9.04m-6.03 0h-9.04m-6.03 0h-9.04m-6.03 0h-9.05m-6.02 0h-9.04m-6.03 0H204m-6.04 0h-9.04m-6.03 0h-9.05m-6.02 0h-9.05m-6.02 0h-9.04m-6.03 0h-9.05m-6.03 0h-9.04m-6.03 0H98.5m-6 0h-9.06m-6.02 0H72.9v-4.25m0-5.67v-8.52m0-5.67v-8.52m0-5.68v-8.5m0-5.68v-8.5m0-5.7v-8.5m0-5.68v-8.5m0-5.68v-8.5m0-5.7v-8.5m0-5.67v-4.27h4.52" stroke="#000" stroke-width="3" fill="none"/><use xlink:href="#g" transform="matrix(1,0,0,1,77.89675516224176,1620.6306937609766) translate(168.575 62.6)"/><path d="M477.33 1615.63h376.7v53.35h-376.7z" stroke="#000" stroke-width="2" fill="#c7e8ac"/><use xlink:href="#h" transform="matrix(1,0,0,1,482.33333333333303,1620.6306937609766) translate(143.4 25.6)"/><use xlink:href="#i" transform="matrix(1,0,0,1,482.33333333333303,1620.6306937609766) translate(194.60000000000002 25.6)"/><path d="M874.03 1615.3h376.7v53.36h-376.7z" stroke="#000" stroke-width="2" fill="#c7e8ac"/><use xlink:href="#j" transform="matrix(1,0,0,1,879.0294985250734,1620.3131383385676) translate(102.25 25.6)"/><use xlink:href="#k" transform="matrix(1,0,0,1,879.0294985250734,1620.3131383385676) translate(163.85 25.6)"/><use xlink:href="#i" transform="matrix(1,0,0,1,879.0294985250734,1620.3131383385676) translate(235.75 25.6)"/><path d="M261.25 1262.5v333.13" stroke="#000" stroke-width="2" fill="none"/><path d="M262.25 1262.53h-2v-1.03h2z"/><path d="M261.25 1610.9l-4.64-14.27h9.28z" stroke="#000" stroke-width="2"/><path d="M665.04 1263.4l.6 332.73" stroke="#000" stroke-width="2" fill="none"/><path d="M666.04 1263.43h-2v-1.03h2z"/><path d="M665.68 1611.4l-4.66-14.26 9.27-.02z" stroke="#000" stroke-width="2"/><path d="M43.68 43.68h240v60h-240z" fill="none"/><path d="M1062.38 1262v333.8" stroke="#000" stroke-width="2" fill="none"/><path d="M1063.38 1262.03h-2V1261h2z"/><path d="M1062.38 1611.08l-4.64-14.27h9.27z" stroke="#000" stroke-width="2"/><path d="M40 67c0-14.9 12.1-27 27-27h1181.9c14.9 0 27 12.1 27 27v66c0 14.9-12.1 27-27 27H67c-14.9 0-27-12.1-27-27z" stroke="#000" stroke-width="2" fill="#e5e5e5"/><use xlink:href="#l" transform="matrix(1,0,0,1,45,44.999999999999986) translate(519.125 14.4)"/><use xlink:href="#d" transform="matrix(1,0,0,1,45,44.999999999999986) translate(620.975 14.4)"/><use xlink:href="#m" transform="matrix(1,0,0,1,45,44.999999999999986) translate(637.975 14.4)"/><path d="M72.25 83.5h180.6v60H72.26z" stroke="#000" stroke-width="2" fill="#ffeca9"/><use xlink:href="#n" transform="matrix(1,0,0,1,77.25172074729583,88.51108448172559) translate(78 28.6)"/><path d="M270.6 83.5h180.6v60H270.6z" stroke="#000" stroke-width="2" fill="#ffeca9"/><use xlink:href="#n" transform="matrix(1,0,0,1,275.5998033431661,88.51108448172559) translate(78 28.6)"/><path d="M468.95 83.5h180.6v60h-180.6z" stroke="#000" stroke-width="2" fill="#ffeca9"/><use xlink:href="#n" transform="matrix(1,0,0,1,473.9478859390364,88.51108448172559) translate(78 28.6)"/><path d="M667.3 83.5h180.6v60H667.3z" stroke="#000" stroke-width="2" fill="#ffeca9"/><use xlink:href="#n" transform="matrix(1,0,0,1,672.2959685349066,88.51108448172559) translate(78 28.6)"/><path d="M865.64 83.5h180.6v60h-180.6z" stroke="#000" stroke-width="2" fill="#ffeca9"/><use xlink:href="#n" transform="matrix(1,0,0,1,870.6440511307771,88.51108448172559) translate(78 28.6)"/><path d="M1069.47 83.5h180.6v60h-180.6z" stroke="#000" stroke-width="2" fill="#ffeca9"/><use xlink:href="#o" transform="matrix(1,0,0,1,1074.4749262536873,88.51108448172559) translate(78 28.6)"/><path d="M40.65 447c0-14.9 12.08-27 27-27h1181.88c14.9 0 27 12.1 27 27v143.32c0 14.9-12.1 27-27 27H67.65c-14.92 0-27-12.1-27-27z" stroke="#000" stroke-width="2" fill="#e5e5e5"/><use xlink:href="#p" transform="matrix(1,0,0,1,45.64503441494571,424.99999999999983) translate(529.125 14.4)"/><use xlink:href="#q" transform="matrix(1,0,0,1,45.64503441494571,424.99999999999983) translate(621.975 14.4)"/><path d="M72.9 524.8h376.7v72.52H72.9z" stroke="#000" stroke-width="2" fill="#c1e4f7"/><use xlink:href="#r" transform="matrix(1,0,0,1,77.89675516224176,529.7932893948475) translate(160.025 35.1)"/><path d="M473.14 524.8h376.7v72.52h-376.7z" stroke="#000" stroke-width="2" fill="#c1e4f7"/><use xlink:href="#s" transform="matrix(1,0,0,1,478.14060963618476,529.7932893948475) translate(137.7 35.1)"/><path d="M874.03 524.8h376.7v72.52h-376.7z" stroke="#000" stroke-width="2" fill="#c1e4f7"/><use xlink:href="#t" transform="matrix(1,0,0,1,879.0294985250734,529.7932893948475) translate(160.075 35.1)"/><path d="M42.26 691.16c0-14.92 12.1-27 27-27h1181.88c14.92 0 27 12.08 27 27V973c0 14.9-12.08 27-27 27H69.26c-14.9 0-27-12.1-27-27z" stroke="#000" stroke-width="2" fill="#e5e5e5"/><use xlink:href="#u" transform="matrix(1,0,0,1,47.25762045231056,669.1564157203113) translate(530.975 14.4)"/><use xlink:href="#d" transform="matrix(1,0,0,1,47.25762045231056,669.1564157203113) translate(601.825 14.4)"/><use xlink:href="#v" transform="matrix(1,0,0,1,47.25762045231056,669.1564157203113) translate(618.825 14.4)"/><path d="M72.9 790.5h559.9v49.9H72.9z" stroke="#000" stroke-width="2" fill="url(#w)"/><use xlink:href="#x" transform="matrix(1,0,0,1,77.89675516224179,795.5126255979119) translate(252.05 23.6)"/><path d="M690.84 790.23h559.9v49.88h-559.9z" stroke="#000" stroke-width="2" fill="url(#y)"/><use xlink:href="#z" transform="matrix(1,0,0,1,695.8397246804327,795.225918416537) translate(258.525 23.6)"/><path d="M72.9 860h559.9v49.46H72.9z" stroke="#000" stroke-width="2" fill="url(#A)"/><use xlink:href="#B" transform="matrix(1,0,0,1,77.89675516224179,864.9999999999999) translate(256.05 23.6)"/><path d="M690.84 860.43h559.9v49.46h-559.9z" stroke="#000" stroke-width="2" fill="url(#C)"/><use xlink:href="#D" transform="matrix(1,0,0,1,695.8397246804327,865.4263850389669) translate(257.05 23.6)"/><path d="M72.9 931.4h1177.18v49.46H72.9z" stroke="#000" stroke-width="2" fill="url(#E)"/><use xlink:href="#F" transform="matrix(1,0,0,1,77.89675516224167,936.3955767878571) translate(575.5 23.6)"/><path d="M40.65 1067c0-14.9 12.08-27 27-27h1181.88c14.9 0 27 12.1 27 27v186c0 14.9-12.1 27-27 27H67.65c-14.92 0-27-12.1-27-27z" stroke="#000" stroke-width="2" fill="#e5e5e5"/><use xlink:href="#u" transform="matrix(1,0,0,1,45.645034414945826,1045) translate(538.1 14.4)"/><use xlink:href="#G" transform="matrix(1,0,0,1,45.645034414945826,1045) translate(608.95 14.4)"/><path d="M72.9 1097.16h376.7V1260H72.9z" fill="#999"/><path d="M83.44 1097.16h9.05m6 0h9.05m6.03 0h9.04m6.03 0h9.04m6.02 0h9.04m6.02 0h9.05m6.02 0h9.04m6.02 0h9.04m6.03 0h9.03m6.03 0h9.04m6.02 0h9.05m6.02 0h9.03m6.03 0h9.04m6.03 0h9.04m6.03 0h9.04m6.02 0h9.05m6.03 0h9.04m6.03 0h9.04m6.03 0h9.04m6.04 0h9.04m6.02 0h9.05m6.02 0h9.04m6.04 0h9.04m6.03 0h9.05m6.03 0h4.52v4.44m0 5.92v8.88m0 5.93v8.88m0 5.93v8.88m0 5.93v8.9m0 5.9v8.9m0 5.9v8.9m0 5.9v8.9m0 5.92v8.88m0 5.92v8.88m0 5.93v8.88m0 5.92v4.44h-4.52m-6.03 0H430m-6.02 0h-9.04m-6.03 0h-9.03m-6.02 0h-9.05m-6.02 0h-9.04m-6.03 0h-9.03m-6.03 0h-9.04m-6.03 0h-9.04m-6.02 0h-9.04m-6.02 0h-9.04m-6.03 0h-9.04m-6.03 0h-9.04m-6.03 0h-9.04m-6.03 0h-9.05m-6.02 0h-9.04m-6.03 0H204m-6.04 0h-9.04m-6.03 0h-9.05m-6.02 0h-9.05m-6.02 0h-9.04m-6.03 0h-9.05m-6.03 0h-9.04m-6.03 0H98.5m-6 0h-9.06m-6.02 0H72.9v-4.44m0-5.92v-8.88m0-5.93v-8.88m0-5.92v-8.88m0-5.92v-8.9m0-5.9v-8.9m0-5.9v-8.9m0-5.9v-8.9m0-5.92v-8.87m0-5.92v-8.87m0-5.93v-8.88m0-5.92v-4.44h4.52" stroke="#000" stroke-width="3" fill="none"/><use xlink:href="#H" transform="matrix(1,0,0,1,77.89675516224182,1102.159976033553) translate(144.125 80.10000000000001)"/><use xlink:href="#I" transform="matrix(1,0,0,1,77.89675516224182,1102.159976033553) translate(178.975 80.10000000000001)"/><path d="M476.7 1209h376.7v52.4H476.7z" stroke="#000" stroke-width="2" fill="#c1e4f7"/><use xlink:href="#h" transform="matrix(1,0,0,1,481.6882989183873,1214) translate(141.425 25.1)"/><use xlink:href="#J" transform="matrix(1,0,0,1,481.6882989183873,1214) translate(192.625 25.1)"/><path d="M874.03 1097.16h376.7V1260h-376.7z" stroke="#000" stroke-width="2" fill="#ffeca9"/><use xlink:href="#j" transform="matrix(1,0,0,1,879.0294985250734,1102.159976033553) translate(94.8 80.10000000000001)"/><use xlink:href="#k" transform="matrix(1,0,0,1,879.0294985250734,1102.159976033553) translate(156.4 80.10000000000001)"/><use xlink:href="#I" transform="matrix(1,0,0,1,879.0294985250734,1102.159976033553) translate(228.3 80.10000000000001)"/><path d="M72.9 723.12h559.9v50.17H72.9z" stroke="#000" stroke-width="2" fill="#c7e8ac"/><use xlink:href="#K" transform="matrix(1,0,0,1,77.89675516224179,728.1158724808471) translate(218.575 24.1)"/><use xlink:href="#i" transform="matrix(1,0,0,1,77.89675516224179,728.1158724808471) translate(302.425 24.1)"/><path d="M690.84 723.33h559.9v50.17h-559.9z" stroke="#000" stroke-width="2" fill="#c7e8ac"/><use xlink:href="#L" transform="matrix(1,0,0,1,695.8397246804327,728.327576095786) translate(229.05 24.1)"/><use xlink:href="#i" transform="matrix(1,0,0,1,695.8397246804327,728.327576095786) translate(291.95000000000005 24.1)"/><path d="M72.9 470.8h376.7v55.9H72.9z" stroke="#000" stroke-width="2" fill="#c7e8ac"/><use xlink:href="#M" transform="matrix(1,0,0,1,77.89675516224176,475.8088675853806) translate(143.2 26.6)"/><use xlink:href="#i" transform="matrix(1,0,0,1,77.89675516224176,475.8088675853806) translate(194.79999999999998 26.6)"/><path d="M473.14 470.8h376.7v55.9h-376.7z" stroke="#000" stroke-width="2" fill="#c7e8ac"/><use xlink:href="#N" transform="matrix(1,0,0,1,478.14060963618476,475.8088675853806) translate(120.7 26.6)"/><use xlink:href="#i" transform="matrix(1,0,0,1,478.14060963618476,475.8088675853806) translate(217.3 26.6)"/><path d="M874.03 470.8h376.7v55.9h-376.7z" stroke="#000" stroke-width="2" fill="#c7e8ac"/><use xlink:href="#O" transform="matrix(1,0,0,1,879.0294985250734,475.8088675853806) translate(143.25 26.6)"/><use xlink:href="#i" transform="matrix(1,0,0,1,879.0294985250734,475.8088675853806) translate(194.75 26.6)"/><path d="M1360 337.56h250.27v59.7H1360z" stroke="#000" stroke-width="2" fill="#c7e8ac"/><use xlink:href="#P" transform="matrix(1,0,0,1,1365,342.55542240862746) translate(61.074999999999996 28.6)"/><use xlink:href="#Q" transform="matrix(1,0,0,1,1365,342.55542240862746) translate(132.975 28.6)"/><use xlink:href="#i" transform="matrix(1,0,0,1,1365,342.55542240862746) translate(150.925 28.6)"/><path d="M476.7 1097.16h376.7v52.4H476.7z" stroke="#000" stroke-width="2" fill="#ffeca9"/><use xlink:href="#h" transform="matrix(1,0,0,1,481.6882989183873,1102.159976033553) translate(116.975 25.1)"/><use xlink:href="#R" transform="matrix(1,0,0,1,481.6882989183873,1102.159976033553) translate(168.175 25.1)"/><use xlink:href="#I" transform="matrix(1,0,0,1,481.6882989183873,1102.159976033553) translate(206.125 25.1)"/><path d="M1360.65 516.66h250.27v59.7h-250.27z" stroke="#000" stroke-width="2" fill="#c1e4f7"/><use xlink:href="#P" transform="matrix(1,0,0,1,1365.6450344149457,521.6566806470939) translate(57.125 28.6)"/><use xlink:href="#S" transform="matrix(1,0,0,1,1365.6450344149457,521.6566806470939) translate(129.025 28.6)"/><path d="M476.7 1160h376.7v52.4H476.7z" stroke="#000" stroke-width="2" fill="#c7e8ac"/><use xlink:href="#h" transform="matrix(1,0,0,1,481.6882989183873,1165) translate(124.425 25.1)"/><use xlink:href="#R" transform="matrix(1,0,0,1,481.6882989183873,1165) translate(175.625 25.1)"/><use xlink:href="#i" transform="matrix(1,0,0,1,481.6882989183873,1165) translate(213.575 25.1)"/><path d="M1362.26 1010.77h250.27v84.47h-250.27z" stroke="#000" stroke-width="2" fill="#d1bcd2"/><use xlink:href="#T" transform="matrix(1,0,0,1,1367.2576204523107,1015.7729179149187) translate(12.75 41.1)"/><use xlink:href="#U" transform="matrix(1,0,0,1,1367.2576204523107,1015.7729179149187) translate(99.65 41.1)"/><use xlink:href="#V" transform="matrix(1,0,0,1,1367.2576204523107,1015.7729179149187) translate(159.5 41.1)"/><use xlink:href="#W" transform="matrix(1,0,0,1,1367.2576204523107,1015.7729179149187) translate(180.45 41.1)"/><path d="M1361.3 593.82h250.26v84.47H1361.3z" stroke="#000" stroke-width="2" fill="#ffeca9"/><use xlink:href="#X" transform="matrix(1,0,0,1,1366.2900688298919,598.8226482923906) translate(32.14999999999999 41.1)"/><use xlink:href="#Y" transform="matrix(1,0,0,1,1366.2900688298919,598.8226482923906) translate(169.85000000000002 41.1)"/><path d="M1361.6 695.76h250.3v84.47h-250.3z" stroke="#000" stroke-width="2" fill="url(#Z)"/><use xlink:href="#P" transform="matrix(1,0,0,1,1366.612586037365,700.75793888556) translate(10.724999999999994 41.1)"/><use xlink:href="#V" transform="matrix(1,0,0,1,1366.612586037365,700.75793888556) translate(82.625 41.1)"/><use xlink:href="#aa" transform="matrix(1,0,0,1,1366.612586037365,700.75793888556) translate(103.575 41.1)"/><use xlink:href="#S" transform="matrix(1,0,0,1,1366.612586037365,700.75793888556) translate(175.425 41.1)"/><path d="M261.27 599.32l.03 1.56.15 2.43.25 2.33.33 2.23.4 2.16.5 2.1.57 2.03.65 2 .73 1.98.83 1.96.92 1.94 1.03 1.95 1.13 1.96 1.27 2 1.43 2.05 1.6 2.1 1.82 2.2 2.1 2.33 2.43 2.5 2.92 2.73 3.62 3.13 4.85 3.82 8.14 5.88 24.3 16.9 4.86 3.85 3.62 3.12 2.92 2.74 2.44 2.5 2.1 2.32 1.8 2.2 1.6 2.1 1.44 2.05 1.27 2 1.14 1.97 1.02 1.95.92 1.94.83 1.96.62 1.65" stroke="#000" stroke-width="2" fill="none"/><path d="M262.27 599.32l-2 .04-.02-1.04h2z"/><path d="M352.3 718.92l-6.9-13.3 9.14-1.53z" stroke="#000" stroke-width="2"/><path d="M661.52 599.32l.04.54.07.76.12.75.14.75.17.75.2.76.26.76.28.76.34.8.38.8.43.8.5.85.54.88.6.9.73.94.8.98.94 1.03 1.07 1.1 1.24 1.15 1.43 1.24 1.7 1.34 2 1.44 2.37 1.58 2.88 1.75 3.55 1.94 4.43 2.2 5.67 2.5 7.48 2.97 10.3 3.57 15.17 4.56L753 647l151.93 33.18 15.16 4.55 10.3 3.57 7.48 2.96 5.67 2.52 4.43 2.2 3.54 1.94 2.88 1.74 2.4 1.58 1.98 1.45 1.68 1.32 1.44 1.24.98.92" stroke="#000" stroke-width="2" fill="none"/><path d="M662.5 599.32l-2 .04v-1.04h2z"/><path d="M969.36 719.42l-10.43-10.77 8.32-4.08z" stroke="#000" stroke-width="2"/><path d="M1062.36 599.32l-.03 1.56-.16 2.44-.24 2.33-.33 2.24-.4 2.16-.5 2.1-.58 2.04-.65 2-.74 2-.82 1.95-.9 1.96-1.04 1.97-1.14 1.97-1.27 2-1.43 2.06-1.6 2.12-1.83 2.2-2.1 2.33-2.46 2.5-2.93 2.74-3.63 3.13-4.88 3.86-8.28 5.97-23.94 16.68-4.9 3.86-3.63 3.15-2.93 2.75-2.45 2.5-2.1 2.32-1.82 2.2-1.6 2.12-1.43 2.05-1.28 2-1.14 1.97-1.02 1.96-.92 1.96-.83 1.95-.63 1.7" stroke="#000" stroke-width="2" fill="none"/><path d="M1063.36 599.36l-2-.04.02-1h2z"/><path d="M971.3 719.14l-2.23-14.84 9.15 1.52z" stroke="#000" stroke-width="2"/><path d="M292.3 1079.95l.55-.47 1.5-1.18 1.77-1.3 2.13-1.4 2.57-1.55 3.15-1.74 3.96-1.94 5.05-2.25 6.66-2.62 9.14-3.17 13.3-3.98 21.8-5.55 158.65-33.57 13.3-4 9.14-3.17 6.66-2.63 5.06-2.24 3.94-1.96 3.16-1.73 2.57-1.56 2.12-1.4 1.77-1.28 1.5-1.2 1.27-1.1 1.1-1.02.95-.97.82-.9.72-.9.63-.82.55-.8.5-.75.42-.75.38-.72.33-.7.3-.7.25-.68.22-.68.18-.66.16-.66.13-.66.08-.67.07-.66.03-.34" stroke="#000" stroke-width="2" fill="none"/><path d="M285.26 1092.82l2.8-14.74 8.12 4.45z" stroke="#000" stroke-width="2"/><path d="M581.9 982.88h-2v-1.02h2z"/><path d="M661.5 982.86l.02 94.8" stroke="#000" stroke-width="2" fill="none"/><path d="M662.5 982.88h-2v-1.02h2z"/><path d="M661.53 1092.92l-4.64-14.26h9.26z" stroke="#000" stroke-width="2"/><path d="M753.85 982.86l.02.3.07.66.1.64.1.65.16.65.2.65.2.66.25.66.28.68.33.7.37.7.42.72.47.75.55.8.62.8.7.85.8.9.93.95 1.08 1 1.26 1.1 1.48 1.16 1.74 1.26 2.1 1.38 2.5 1.53 3.12 1.7 3.9 1.94 4.97 2.2 6.54 2.6 8.97 3.1 12.98 3.9 20.9 5.3 48.46 10.1 103.85 20.42 20.9 5.32 12.97 3.9 8.96 3.1 6.55 2.6 4.97 2.2 3.9 1.92 3.1 1.7 2.52 1.54 2.1 1.38 1.74 1.27 1.47 1.15.2.2" stroke="#000" stroke-width="2" fill="none"/><path d="M754.83 982.86l-2 .04-.02-1.04h2z"/><path d="M1060.8 1093.34l-11-10.2 8.08-4.52z" stroke="#000" stroke-width="2"/><path d="M40 227c0-14.9 12.1-27 27-27h1181.9c14.9 0 27 12.1 27 27v126.37c0 14.9-12.1 27-27 27H67c-14.9 0-27-12.1-27-27z" fill="#e5efa8"/><path d="M41.8 217.32l.02-.1 2.22-4.44 2.06-2.7m3.96-4l.73-.67 4.24-2.6 2.32-.9m5.44-1.47l1.76-.32L67 200h4.5m5.97 0h8.98m5.98 0h8.98m6 0h8.97m5.98 0h8.98m5.98 0h9m5.98 0h8.97m6 0h8.96m6 0h8.97m6 0h8.96m6 0h8.96m5.98 0h8.97m6 0H251m5.98 0h8.98m5.98 0h8.98m5.98 0h8.98m5.98 0h8.98m5.98 0h8.98m5.98 0h8.98m5.98 0h8.98m5.98 0h8.98m5.98 0h8.98m5.98 0h8.98m6 0h8.96m6 0h8.96m6 0h8.96m6 0h8.96m6 0h8.96m6 0h8.96m6 0h8.97m5.98 0h8.98m6 0h8.97m5.98 0h8.98m5.98 0h9m5.97 0h8.98m5.98 0h8.98m6 0h8.97m5.98 0h8.98m5.98 0h9m5.97 0h8.98m6 0h8.96m6 0h8.97m6 0h8.96m6 0h8.96m5.98 0h8.97m6 0h8.96m6 0h8.97m6 0h8.97m5.98 0h8.98m5.98 0h8.98m5.98 0h8.98m5.98 0h8.98m5.98 0h8.98m5.98 0h8.98m5.98 0h8.98m5.98 0h8.98m5.98 0h8.98m5.98 0h8.98m6 0h8.96m6 0h8.96m6 0h8.96m6 0h8.96m6 0h8.96m6 0h8.96m6 0h8.97m5.98 0h8.98m5.98 0h9m5.97 0h8.98m5.98 0h8.98m6 0h8.97m5.98 0h8.98m5.98 0h9m5.97 0h8.98m5.98 0h8.98m6 0h8.97m6 0h8.96m6 0h8.96m5.98 0h8.97m6 0h8.96m6 0h4.5l4.2.4m5.46 1.4l.1.02 4.45 2.22 2.72 2.06m4 3.96l.66.73 2.62 4.24.9 2.32m1.45 5.44l.33 1.76.1 2.44v4.74m0 6.32v9.48m0 6.3v9.5m0 6.3v9.5m0 6.3v9.48m0 6.32v9.48m0 6.32v9.48m0 6.32v9.47m0 6.33v4.74l-.38 4.22m-1.4 5.45l-.04.1-2.22 4.44-2.05 2.7m-3.97 4l-.73.66-4.25 2.62-2.33.9m-5.43 1.46l-1.78.32-2.43.1h-4.5m-6 0h-8.96m-6 0h-8.96m-6 0h-8.96m-6 0h-8.96m-6 0h-8.97m-6 0h-8.97m-5.98 0h-8.98m-5.98 0h-9m-5.97 0h-8.98m-5.98 0h-8.98m-6 0h-8.97m-5.98 0h-8.98m-5.98 0h-9m-5.97 0h-8.98m-5.98 0H1020m-6 0h-8.97m-6 0h-8.96m-6 0h-8.96m-5.98 0h-8.97m-6 0h-8.96m-6 0h-8.97m-6 0h-8.97m-5.98 0h-8.98m-5.98 0h-8.98m-5.98 0h-8.98m-5.98 0h-8.98m-5.98 0h-8.98m-5.98 0h-8.98m-5.98 0h-8.98m-5.98 0h-8.98m-5.98 0h-8.98m-5.98 0h-8.98m-6 0h-8.96m-6 0h-8.96m-6 0h-8.96m-6 0h-8.96m-6 0h-8.96m-6 0h-8.96m-6 0h-8.96m-6 0h-8.97m-5.98 0h-9m-5.97 0h-8.98m-5.98 0h-8.98m-6 0h-8.97m-5.98 0h-8.98m-5.98 0h-9m-5.97 0h-8.98m-5.98 0h-8.98m-6 0h-8.97m-5.98 0h-8.98m-6 0h-8.96m-5.98 0h-8.97m-6 0h-8.96m-6 0h-8.97m-6 0h-8.96m-6 0h-8.96m-5.98 0h-8.98m-5.98 0h-8.98m-5.98 0h-8.98m-5.98 0h-8.98m-5.98 0h-8.98m-5.98 0h-8.98m-5.98 0h-8.98m-5.98 0h-8.98m-5.98 0h-8.98m-5.98 0H257m-5.98 0h-8.98m-6 0h-8.96m-6 0h-8.96m-6 0h-8.96m-6 0h-8.96m-6 0h-8.96m-6 0h-8.96m-6 0h-8.97m-5.97 0h-8.98m-5.98 0h-8.98m-6 0h-8.97m-5.98 0h-8.98m-5.98 0H67l-4.22-.38m-5.46-1.4l-.1-.03-4.44-2.22-2.7-2.06m-4-3.96l-.67-.7-2.6-4.27-.9-2.32m-1.47-5.42l-.32-1.77-.1-2.43v-4.74m0-6.32v-9.46m0-6.32v-9.48m0-6.32v-9.48m0-6.32v-9.47m0-6.32v-9.48m0-6.32v-9.48m0-6.3v-9.5m0-6.3V227l.4-4.22" stroke="#000" stroke-width="3" fill="none"/><use xlink:href="#ab" transform="matrix(1,0,0,1,45,205) translate(313.325 14.4)"/><use xlink:href="#ac" transform="matrix(1,0,0,1,45,205) translate(470.175 14.4)"/><use xlink:href="#ad" transform="matrix(1,0,0,1,45,205) translate(561.125 14.4)"/><use xlink:href="#ae" transform="matrix(1,0,0,1,45,205) translate(643.0250000000001 14.4)"/><use xlink:href="#af" transform="matrix(1,0,0,1,45,205) translate(674.0250000000001 14.4)"/><use xlink:href="#ag" transform="matrix(1,0,0,1,45,205) translate(753.975 14.4)"/><use xlink:href="#ah" transform="matrix(1,0,0,1,45,205) translate(878.675 14.4)"/><path d="M72.9 300.37h376.7v54H72.9z" stroke="#000" stroke-width="2" fill="#ffeca9"/><g><use xlink:href="#ai" transform="matrix(1,0,0,1,77.89675516224179,305.37147992810105) translate(129.075 25.6)"/><use xlink:href="#Q" transform="matrix(1,0,0,1,77.89675516224179,305.37147992810105) translate(134.075 25.6)"/><use xlink:href="#aj" transform="matrix(1,0,0,1,77.89675516224179,305.37147992810105) translate(152.02499999999998 25.6)"/><use xlink:href="#ak" transform="matrix(1,0,0,1,77.89675516224179,305.37147992810105) translate(186.02499999999998 25.6)"/></g><path d="M473.14 300.37h376.7v54h-376.7z" stroke="#000" stroke-width="2" fill="#ffeca9"/><g><use xlink:href="#al" transform="matrix(1,0,0,1,478.14060963618476,305.37147992810105) translate(131.575 25.6)"/><use xlink:href="#aj" transform="matrix(1,0,0,1,478.14060963618476,305.37147992810105) translate(149.52499999999998 25.6)"/><use xlink:href="#ak" transform="matrix(1,0,0,1,478.14060963618476,305.37147992810105) translate(183.52499999999998 25.6)"/></g><path d="M874.03 300.37h376.7v54h-376.7z" stroke="#000" stroke-width="2" fill="#ffeca9"/><g><use xlink:href="#al" transform="matrix(1,0,0,1,879.0294985250734,305.37147992810105) translate(131.575 25.6)"/><use xlink:href="#aj" transform="matrix(1,0,0,1,879.0294985250734,305.37147992810105) translate(149.52499999999998 25.6)"/><use xlink:href="#ak" transform="matrix(1,0,0,1,879.0294985250734,305.37147992810105) translate(183.52499999999998 25.6)"/></g><path d="M72.9 246.4h376.7v55.88H72.9z" stroke="#000" stroke-width="2" fill="#99d5ca"/><g><use xlink:href="#M" transform="matrix(1,0,0,1,77.89675516224176,251.38705811863434) translate(143.2 26.6)"/><use xlink:href="#i" transform="matrix(1,0,0,1,77.89675516224176,251.38705811863434) translate(194.79999999999998 26.6)"/></g><path d="M473.14 246.4h376.7v55.88h-376.7z" stroke="#000" stroke-width="2" fill="#99d5ca"/><g><use xlink:href="#N" transform="matrix(1,0,0,1,478.14060963618476,251.38705811863434) translate(120.7 26.6)"/><use xlink:href="#i" transform="matrix(1,0,0,1,478.14060963618476,251.38705811863434) translate(217.3 26.6)"/></g><path d="M874.03 246.4h376.7v55.88h-376.7z" stroke="#000" stroke-width="2" fill="#99d5ca"/><g><use xlink:href="#O" transform="matrix(1,0,0,1,879.0294985250734,251.38705811863434) translate(143.25 26.6)"/><use xlink:href="#i" transform="matrix(1,0,0,1,879.0294985250734,251.38705811863434) translate(194.75 26.6)"/></g><path d="M1362.26 414.72h250.27v84.47h-250.27z" stroke="#000" stroke-width="2" fill="#99d5ca"/><g><use xlink:href="#am" transform="matrix(1,0,0,1,1367.2576204523107,419.7213900539245) translate(12.075000000000003 30.299999999999997)"/><use xlink:href="#an" transform="matrix(1,0,0,1,1367.2576204523107,419.7213900539245) translate(148.925 30.299999999999997)"/><use xlink:href="#i" transform="matrix(1,0,0,1,1367.2576204523107,419.7213900539245) translate(106 51.9)"/></g><path d="M657.94 197.5V162" stroke="#000" stroke-width="2" fill="none"/><path d="M658.94 198.5h-2v-1.03h2zM658.94 162.03h-2V161h2z"/><path d="M658.6 418l-.02-35.13" stroke="#000" stroke-width="2" fill="none"/><path d="M659.6 419h-2v-1.03h2zM659.58 382.9h-2v-1.03h2z"/><path d="M1362.26 797.7h250.27v84.46h-250.27z" fill="#e5efa8"/><path d="M1372.56 797.7h8.84m5.88 0h8.84m5.9 0h8.82m5.9 0h8.82m5.9 0h8.82m5.9 0h8.83m5.9 0h8.83m5.9 0h8.82m5.9 0h8.82m5.9 0h8.82m5.88 0h8.84m5.88 0h8.84m5.9 0h8.82m5.9 0h8.82m5.9 0h8.82m5.9 0h8.83m5.88 0h4.43v4.22m0 5.63V816m0 5.63v8.44m0 5.63v8.45m0 5.63v8.45m0 5.63v8.45m0 5.64v4.22h-4.42m-5.87 0h-8.84m-5.9 0h-8.83m-5.9 0h-8.82m-5.9 0h-8.82m-5.9 0h-8.83m-5.88 0h-8.84m-5.9 0h-8.82m-5.9 0h-8.82m-5.9 0h-8.82m-5.9 0h-8.83m-5.9 0h-8.83m-5.9 0h-8.82m-5.9 0h-8.82m-5.9 0h-8.82m-5.88 0h-8.84m-5.88 0h-8.84m-5.9 0h-4.4v-4.22m0-5.63v-8.44m0-5.63v-8.45m0-5.63v-8.45m0-5.63v-8.44m0-5.63v-8.45m0-5.63v-4.23h4.4" stroke="#000" stroke-width="3" fill="none"/><g><use xlink:href="#ao" transform="matrix(1,0,0,1,1367.2576204523107,802.6932294787296) translate(37.625 41.1)"/><use xlink:href="#ap" transform="matrix(1,0,0,1,1367.2576204523107,802.6932294787296) translate(166.425 41.1)"/></g><path d="M1362.26 899.63h250.27v84.47h-250.27z" fill="#999"/><path d="M1372.56 899.63h8.84m5.88 0h8.84m5.9 0h8.82m5.9 0h8.82m5.9 0h8.82m5.9 0h8.83m5.9 0h8.83m5.9 0h8.82m5.9 0h8.82m5.9 0h8.82m5.88 0h8.84m5.88 0h8.84m5.9 0h8.82m5.9 0h8.82m5.9 0h8.82m5.9 0h8.83m5.88 0h4.43v4.22m0 5.63v8.45m0 5.63V932m0 5.64v8.45m0 5.62v8.45m0 5.63v8.44m0 5.63v4.23h-4.42m-5.87 0h-8.84m-5.9 0h-8.83m-5.9 0h-8.82m-5.9 0h-8.82m-5.9 0h-8.83m-5.88 0h-8.84m-5.9 0h-8.82m-5.9 0h-8.82m-5.9 0h-8.82m-5.9 0h-8.83m-5.9 0h-8.83m-5.9 0h-8.82m-5.9 0h-8.82m-5.9 0h-8.82m-5.88 0h-8.84m-5.88 0h-8.84m-5.9 0h-4.4v-4.23m0-5.63v-8.44m0-5.63v-8.45m0-5.63v-8.46m0-5.63v-8.44m0-5.63v-8.45m0-5.63v-4.22h4.4" stroke="#000" stroke-width="3" fill="none"/><g><use xlink:href="#aq" transform="matrix(1,0,0,1,1367.2576204523107,904.6285200718994) translate(72.07499999999999 41.1)"/><use xlink:href="#ap" transform="matrix(1,0,0,1,1367.2576204523107,904.6285200718994) translate(131.975 41.1)"/></g><path d="M40.86 1350.75c0-14.9 12.1-27 27-27h1181.9c14.9 0 27 12.1 27 27v134c0 14.9-12.1 27-27 27H67.85c-14.9 0-27-12.1-27-27z" fill="#e5efa8"/><path d="M42.66 1341.07l.02-.1 2.22-4.44 2.06-2.7m3.96-4l.73-.67 4.25-2.62 2.32-.9m5.44-1.46l1.76-.32 2.44-.1h4.5m5.97 0h8.98m6 0h8.97m5.98 0h8.98m5.98 0h9m5.97 0h8.98m6 0h8.96m6 0h8.97m6 0h8.96m6 0h8.96m5.98 0h8.97m6 0h8.96m6 0h8.98m5.98 0h8.98m5.98 0h8.98m5.98 0h8.98m5.98 0h8.98m5.98 0h8.98m5.98 0h8.98m5.98 0h8.98m5.98 0h8.98m5.98 0h8.98m5.98 0h8.98m6 0h8.96m6 0h8.96m6 0h8.96m6 0h8.96m6 0h8.96m6 0h8.96m6 0h8.97m6 0h8.97m5.98 0h8.98m5.98 0h9m5.97 0h8.98m5.98 0H581m6 0h8.97m5.98 0h8.98m5.98 0h9m5.97 0h8.98m5.98 0h8.98m6 0h8.97m6 0h8.96m6 0h8.96m5.98 0h8.97m6 0h8.96m6 0h8.97m6 0h8.96m6 0h8.97m5.98 0h8.98m5.98 0h8.98m5.98 0h8.98m5.98 0h8.98m5.98 0h8.98m5.98 0h8.98m5.98 0h8.98m5.98 0h8.98m5.98 0h8.98m6 0h8.96m6 0h8.96m6 0H955m6 0h8.96m6 0h8.96m6 0h8.96m6 0h8.96m6 0h8.97m5.98 0h9m5.97 0h8.98m5.98 0h8.98m6 0h8.97m5.98 0h8.98m5.98 0h9m5.97 0h8.98m5.98 0h8.98m6 0h8.97m5.98 0h8.98m6 0h8.96m5.98 0h8.97m6 0h8.96m6 0h8.97m6 0h4.48l4.2.38m5.47 1.4l.1.03 4.45 2.23 2.7 2.05m4 3.96l.67.74 2.62 4.25.9 2.32m1.45 5.43l.34 1.76.1 2.45v4.47m0 5.95v8.94m0 5.96v8.93m0 5.95v8.93m0 5.96v8.93m0 5.96v8.93m0 5.95v8.95m0 5.95v8.93m0 5.96v8.92m0 5.96v4.46l-.38 4.22m-1.4 5.46l-.04.1-2.22 4.44-2.05 2.7m-3.96 4l-.74.68-4.25 2.62-2.32.9m-5.43 1.45l-1.76.34-2.45.1h-4.5m-5.98 0h-8.97m-6 0h-8.96m-6 0h-8.96m-6 0h-8.96m-6 0h-8.97m-5.98 0h-8.98m-6 0h-8.97m-5.98 0h-8.98m-5.98 0h-9m-5.97 0h-8.98m-5.98 0h-8.98m-6 0h-8.97m-5.98 0h-8.98m-5.98 0h-9m-5.97 0h-8.98m-6 0h-8.96m-6 0h-8.97m-6 0h-8.96m-6 0h-8.96m-5.98 0h-8.97m-6 0h-8.96m-6 0h-8.97m-6 0h-8.97m-5.98 0h-8.98m-5.98 0h-8.98m-5.98 0h-8.98m-5.98 0h-8.98m-5.98 0h-8.98m-5.98 0h-8.98m-5.98 0h-8.98m-5.98 0h-8.98m-5.98 0h-8.98m-6 0h-8.96m-6 0h-8.96m-6 0h-8.96m-6 0h-8.96m-6 0h-8.96m-6 0h-8.96m-6 0h-8.96m-6 0h-8.97m-5.98 0h-8.98m-5.98 0h-9m-5.97 0h-8.98m-5.98 0H587m-6 0h-8.97m-5.98 0h-8.98m-5.98 0h-9m-5.97 0h-8.98m-5.98 0h-8.98m-6 0h-8.97m-6 0h-8.96m-6 0h-8.96m-5.98 0h-8.97m-6 0h-8.96m-6 0h-8.97m-6 0h-8.96m-6 0h-8.97m-5.98 0h-8.98m-5.98 0h-8.98m-5.98 0h-8.98m-5.98 0h-8.98m-5.98 0h-8.98m-5.98 0h-8.98m-5.98 0h-8.98m-5.98 0h-8.98m-5.98 0h-8.98m-5.98 0h-8.98m-6 0h-8.96m-6 0H213m-6 0h-8.96m-6 0h-8.96m-6 0h-8.96m-6 0h-8.96m-6 0h-8.97m-5.98 0h-9m-5.97 0h-8.98m-5.98 0H93.3m-6 0h-8.97m-5.98 0h-4.5l-4.2-.4m-5.47-1.4l-.1-.02-4.44-2.22-2.7-2.05m-4-3.96l-.67-.74-2.62-4.25-.9-2.32m-1.46-5.43l-.33-1.77-.1-2.44v-4.46m0-5.96v-8.93m0-5.97v-8.93m0-5.95v-8.94m0-5.94v-8.93m0-5.96v-8.93m0-5.96v-8.93m0-5.96v-8.94m0-5.95v-8.93m0-5.95v-4.47l.38-4.22" stroke="#000" stroke-width="3" fill="none"/><g><use xlink:href="#ab" transform="matrix(1,0,0,1,45.86004588659455,1328.7511832839753) translate(313.325 14.4)"/><use xlink:href="#ac" transform="matrix(1,0,0,1,45.86004588659455,1328.7511832839753) translate(470.175 14.4)"/><use xlink:href="#ad" transform="matrix(1,0,0,1,45.86004588659455,1328.7511832839753) translate(561.125 14.4)"/><use xlink:href="#ae" transform="matrix(1,0,0,1,45.86004588659455,1328.7511832839753) translate(643.0250000000001 14.4)"/><use xlink:href="#af" transform="matrix(1,0,0,1,45.86004588659455,1328.7511832839753) translate(674.0250000000001 14.4)"/><use xlink:href="#ag" transform="matrix(1,0,0,1,45.86004588659455,1328.7511832839753) translate(753.975 14.4)"/><use xlink:href="#ah" transform="matrix(1,0,0,1,45.86004588659455,1328.7511832839753) translate(878.675 14.4)"/></g><path d="M474 1380.9h376.7v54H474z" stroke="#000" stroke-width="2" fill="#ffeca9"/><g><use xlink:href="#al" transform="matrix(1,0,0,1,479.0006555227792,1385.9111593175282) translate(131.575 25.6)"/><use xlink:href="#aj" transform="matrix(1,0,0,1,479.0006555227792,1385.9111593175282) translate(149.52499999999998 25.6)"/><use xlink:href="#ak" transform="matrix(1,0,0,1,479.0006555227792,1385.9111593175282) translate(183.52499999999998 25.6)"/></g><path d="M874.9 1380.9h376.7v54H874.9z" stroke="#000" stroke-width="2" fill="#ffeca9"/><g><use xlink:href="#al" transform="matrix(1,0,0,1,879.8895444116679,1385.9111593175282) translate(131.575 25.6)"/><use xlink:href="#aj" transform="matrix(1,0,0,1,879.8895444116679,1385.9111593175282) translate(149.52499999999998 25.6)"/><use xlink:href="#ak" transform="matrix(1,0,0,1,879.8895444116679,1385.9111593175282) translate(183.52499999999998 25.6)"/></g><path d="M474 1434.9h376.7v55.9H474z" stroke="#000" stroke-width="2" fill="#99d5ca"/><g><use xlink:href="#h" transform="matrix(1,0,0,1,479.0006555227792,1439.895581126995) translate(126.425 26.6)"/><use xlink:href="#ar" transform="matrix(1,0,0,1,479.0006555227792,1439.895581126995) translate(177.625 26.6)"/></g><path d="M874.9 1434.9h376.7v55.9H874.9z" stroke="#000" stroke-width="2" fill="#99d5ca"/><g><use xlink:href="#j" transform="matrix(1,0,0,1,879.8895444116679,1439.895581126995) translate(85.275 26.6)"/><use xlink:href="#k" transform="matrix(1,0,0,1,879.8895444116679,1439.895581126995) translate(146.875 26.6)"/><use xlink:href="#ar" transform="matrix(1,0,0,1,879.8895444116679,1439.895581126995) translate(218.775 26.6)"/></g><defs><path d="M30-248c87 1 191-15 191 75 0 78-77 80-158 76V0H30v-248zm33 125c57 0 124 11 124-50 0-59-68-47-124-48v98" id="as"/><path d="M24 0v-261h32V0H24" id="at"/><path d="M141-36C126-15 110 5 73 4 37 3 15-17 15-53c-1-64 63-63 125-63 3-35-9-54-41-54-24 1-41 7-42 31l-33-3c5-37 33-52 76-52 45 0 72 20 72 64v82c-1 20 7 32 28 27v20c-31 9-61-2-59-35zM48-53c0 20 12 33 32 33 41-3 63-29 60-74-43 2-92-5-92 41" id="au"/><path d="M59-47c-2 24 18 29 38 22v24C64 9 27 4 27-40v-127H5v-23h24l9-43h21v43h35v23H59v120" id="av"/><path d="M101-234c-31-9-42 10-38 44h38v23H63V0H32v-167H5v-23h27c-7-52 17-82 69-68v24" id="aw"/><path d="M100-194c62-1 85 37 85 99 1 63-27 99-86 99S16-35 15-95c0-66 28-99 85-99zM99-20c44 1 53-31 53-75 0-43-8-75-51-75s-53 32-53 75 10 74 51 75" id="ax"/><path d="M114-163C36-179 61-72 57 0H25l-1-190h30c1 12-1 29 2 39 6-27 23-49 58-41v29" id="ay"/><path d="M210-169c-67 3-38 105-44 169h-31v-121c0-29-5-50-35-48C34-165 62-65 56 0H25l-1-190h30c1 10-1 24 2 32 10-44 99-50 107 0 11-21 27-35 58-36 85-2 47 119 55 194h-31v-121c0-29-5-49-35-48" id="az"/><g id="a"><use transform="matrix(0.05,0,0,0.05,0,0)" xlink:href="#as"/><use transform="matrix(0.05,0,0,0.05,12,0)" xlink:href="#at"/><use transform="matrix(0.05,0,0,0.05,15.949999999999998,0)" xlink:href="#au"/><use transform="matrix(0.05,0,0,0.05,25.950000000000003,0)" xlink:href="#av"/><use transform="matrix(0.05,0,0,0.05,30.950000000000003,0)" xlink:href="#aw"/><use transform="matrix(0.05,0,0,0.05,35.95,0)" xlink:href="#ax"/><use transform="matrix(0.05,0,0,0.05,45.95,0)" xlink:href="#ay"/><use transform="matrix(0.05,0,0,0.05,51.900000000000006,0)" xlink:href="#az"/></g><path d="M140-251c81 0 123 46 123 126C263-46 219 4 140 4 59 4 17-45 17-125s42-126 123-126zm0 227c63 0 89-41 89-101s-29-99-89-99c-61 0-89 39-89 99S79-25 140-24" id="aA"/><path d="M185-189c-5-48-123-54-124 2 14 75 158 14 163 119 3 78-121 87-175 55-17-10-28-26-33-46l33-7c5 56 141 63 141-1 0-78-155-14-162-118-5-82 145-84 179-34 5 7 8 16 11 25" id="aB"/><g id="b"><use transform="matrix(0.05,0,0,0.05,0,0)" xlink:href="#aA"/><use transform="matrix(0.05,0,0,0.05,14,0)" xlink:href="#aB"/></g><path d="M30-248c118-7 216 8 213 122C240-48 200 0 122 0H30v-248zM63-27c89 8 146-16 146-99s-60-101-146-95v194" id="aC"/><path d="M24-231v-30h32v30H24zM24 0v-190h32V0H24" id="aD"/><path d="M108 0H70L1-190h34L89-25l56-165h34" id="aE"/><path d="M100-194c63 0 86 42 84 106H49c0 40 14 67 53 68 26 1 43-12 49-29l28 8c-11 28-37 45-77 45C44 4 14-33 15-96c1-61 26-98 85-98zm52 81c6-60-76-77-97-28-3 7-6 17-6 28h103" id="aF"/><path d="M135-143c-3-34-86-38-87 0 15 53 115 12 119 90S17 21 10-45l28-5c4 36 97 45 98 0-10-56-113-15-118-90-4-57 82-63 122-42 12 7 21 19 24 35" id="aG"/><g id="c"><use transform="matrix(0.05,0,0,0.05,0,0)" xlink:href="#aC"/><use transform="matrix(0.05,0,0,0.05,12.950000000000001,0)" xlink:href="#ay"/><use transform="matrix(0.05,0,0,0.05,18.900000000000002,0)" xlink:href="#aD"/><use transform="matrix(0.05,0,0,0.05,22.85,0)" xlink:href="#aE"/><use transform="matrix(0.05,0,0,0.05,31.85,0)" xlink:href="#aF"/><use transform="matrix(0.05,0,0,0.05,41.85,0)" xlink:href="#ay"/><use transform="matrix(0.05,0,0,0.05,47.800000000000004,0)" xlink:href="#aG"/></g><path d="M234-2c-28 10-62 0-77-18C117 19 8 12 13-65c3-43 29-61 60-76-25-40-17-114 47-108 35 3 59 15 59 50 0 44-40 53-71 69 14 26 32 50 51 72 14-21 24-43 30-72l26 8c-9 33-21 57-38 82 13 13 33 22 57 15v23zM97-151c25-10 52-18 56-48-1-18-13-29-33-29-42 0-39 50-23 77zM42-66c-3 51 71 58 98 28-20-24-41-51-56-80-23 10-40 24-42 52" id="aH"/><use transform="matrix(0.05,0,0,0.05,0,0)" xlink:href="#aH" id="d"/><path d="M30 0v-248h33v221h125V0H30" id="aI"/><path d="M115-194c53 0 69 39 70 98 0 66-23 100-70 100C84 3 66-7 56-30L54 0H23l1-261h32v101c10-23 28-34 59-34zm-8 174c40 0 45-34 45-75 0-40-5-75-45-74-42 0-51 32-51 76 0 43 10 73 51 73" id="aJ"/><g id="e"><use transform="matrix(0.05,0,0,0.05,0,0)" xlink:href="#aI"/><use transform="matrix(0.05,0,0,0.05,10,0)" xlink:href="#aD"/><use transform="matrix(0.05,0,0,0.05,13.949999999999998,0)" xlink:href="#aJ"/><use transform="matrix(0.05,0,0,0.05,23.95,0)" xlink:href="#ay"/><use transform="matrix(0.05,0,0,0.05,29.899999999999995,0)" xlink:href="#au"/><use transform="matrix(0.05,0,0,0.05,39.9,0)" xlink:href="#ay"/><use transform="matrix(0.05,0,0,0.05,45.85,0)" xlink:href="#aD"/><use transform="matrix(0.05,0,0,0.05,49.800000000000004,0)" xlink:href="#aF"/><use transform="matrix(0.05,0,0,0.05,59.800000000000004,0)" xlink:href="#aG"/></g><path d="M160-131c35 5 61 23 61 61C221 17 115-2 30 0v-248c76 3 177-17 177 60 0 33-19 50-47 57zm-97-11c50-1 110 9 110-42 0-47-63-36-110-37v79zm0 115c55-2 124 14 124-45 0-56-70-42-124-44v89" id="aK"/><path d="M30 0v-248h187v28H63v79h144v27H63v87h162V0H30" id="aL"/><g id="f"><use transform="matrix(0.05,0,0,0.05,0,0)" xlink:href="#aK"/><use transform="matrix(0.05,0,0,0.05,12,0)" xlink:href="#aI"/><use transform="matrix(0.05,0,0,0.05,22,0)" xlink:href="#aL"/></g><path d="M266 0h-40l-56-210L115 0H75L2-248h35L96-30l15-64 43-154h32l59 218 59-218h35" id="aM"/><g id="g"><use transform="matrix(0.05,0,0,0.05,0,0)" xlink:href="#aM"/><use transform="matrix(0.05,0,0,0.05,16.95,0)" xlink:href="#aD"/><use transform="matrix(0.05,0,0,0.05,20.9,0)" xlink:href="#aw"/><use transform="matrix(0.05,0,0,0.05,25.899999999999995,0)" xlink:href="#aD"/></g><path d="M143 4C61 4 22-44 18-125c-5-107 100-154 193-111 17 8 29 25 37 43l-32 9c-13-25-37-40-76-40-61 0-88 39-88 99 0 61 29 100 91 101 35 0 62-11 79-27v-45h-74v-28h105v86C228-13 192 4 143 4" id="aN"/><path d="M205 0l-28-72H64L36 0H1l101-248h38L239 0h-34zm-38-99l-47-123c-12 45-31 82-46 123h93" id="aO"/><path d="M127-220V0H93v-220H8v-28h204v28h-85" id="aP"/><g id="h"><use transform="matrix(0.05,0,0,0.05,0,0)" xlink:href="#aN"/><use transform="matrix(0.05,0,0,0.05,14,0)" xlink:href="#aO"/><use transform="matrix(0.05,0,0,0.05,24.65,0)" xlink:href="#aP"/><use transform="matrix(0.05,0,0,0.05,35.6,0)" xlink:href="#aP"/></g><path d="M33 0v-248h34V0H33" id="aQ"/><g id="i"><use transform="matrix(0.05,0,0,0.05,0,0)" xlink:href="#aO"/><use transform="matrix(0.05,0,0,0.05,12,0)" xlink:href="#as"/><use transform="matrix(0.05,0,0,0.05,24,0)" xlink:href="#aQ"/></g><path d="M101-251c82-7 93 87 43 132L82-64C71-53 59-42 53-27h129V0H18c2-99 128-94 128-182 0-28-16-43-45-43s-46 15-49 41l-32-3c6-41 34-60 81-64" id="aR"/><path d="M212-179c-10-28-35-45-73-45-59 0-87 40-87 99 0 60 29 101 89 101 43 0 62-24 78-52l27 14C228-24 195 4 139 4 59 4 22-46 18-125c-6-104 99-153 187-111 19 9 31 26 39 46" id="aS"/><g id="j"><use transform="matrix(0.05,0,0,0.05,0,0)" xlink:href="#aI"/><use transform="matrix(0.05,0,0,0.05,10,0)" xlink:href="#aR"/><use transform="matrix(0.05,0,0,0.05,20,0)" xlink:href="#aS"/><use transform="matrix(0.05,0,0,0.05,32.95,0)" xlink:href="#aO"/><use transform="matrix(0.05,0,0,0.05,44.95,0)" xlink:href="#as"/></g><path d="M106-169C34-169 62-67 57 0H25v-261h32l-1 103c12-21 28-36 61-36 89 0 53 116 60 194h-32v-121c2-32-8-49-39-48" id="aT"/><path d="M117-194c89-4 53 116 60 194h-32v-121c0-31-8-49-39-48C34-167 62-67 57 0H25l-1-190h30c1 10-1 24 2 32 11-22 29-35 61-36" id="aU"/><g id="k"><use transform="matrix(0.05,0,0,0.05,0,0)" xlink:href="#aS"/><use transform="matrix(0.05,0,0,0.05,12.950000000000001,0)" xlink:href="#aT"/><use transform="matrix(0.05,0,0,0.05,22.950000000000003,0)" xlink:href="#au"/><use transform="matrix(0.05,0,0,0.05,32.95,0)" xlink:href="#aU"/><use transform="matrix(0.05,0,0,0.05,42.95,0)" xlink:href="#aU"/><use transform="matrix(0.05,0,0,0.05,52.95,0)" xlink:href="#aF"/><use transform="matrix(0.05,0,0,0.05,62.95,0)" xlink:href="#at"/></g><path d="M115-194c55 1 70 41 70 98S169 2 115 4C84 4 66-9 55-30l1 105H24l-1-265h31l2 30c10-21 28-34 59-34zm-8 174c40 0 45-34 45-75s-6-73-45-74c-42 0-51 32-51 76 0 43 10 73 51 73" id="aV"/><path d="M96-169c-40 0-48 33-48 73s9 75 48 75c24 0 41-14 43-38l32 2c-6 37-31 61-74 61-59 0-76-41-82-99-10-93 101-131 147-64 4 7 5 14 7 22l-32 3c-4-21-16-35-41-35" id="aW"/><g id="l"><use transform="matrix(0.05,0,0,0.05,0,0)" xlink:href="#aO"/><use transform="matrix(0.05,0,0,0.05,12,0)" xlink:href="#aV"/><use transform="matrix(0.05,0,0,0.05,22,0)" xlink:href="#aV"/><use transform="matrix(0.05,0,0,0.05,32,0)" xlink:href="#at"/><use transform="matrix(0.05,0,0,0.05,35.95,0)" xlink:href="#aD"/><use transform="matrix(0.05,0,0,0.05,39.900000000000006,0)" xlink:href="#aW"/><use transform="matrix(0.05,0,0,0.05,48.900000000000006,0)" xlink:href="#au"/><use transform="matrix(0.05,0,0,0.05,58.900000000000006,0)" xlink:href="#av"/><use transform="matrix(0.05,0,0,0.05,63.900000000000006,0)" xlink:href="#aD"/><use transform="matrix(0.05,0,0,0.05,67.85000000000001,0)" xlink:href="#ax"/><use transform="matrix(0.05,0,0,0.05,77.85000000000001,0)" xlink:href="#aU"/><use transform="matrix(0.05,0,0,0.05,87.85000000000001,0)" xlink:href="#aG"/></g><g id="m"><use transform="matrix(0.05,0,0,0.05,0,0)" xlink:href="#aB"/><use transform="matrix(0.05,0,0,0.05,12,0)" xlink:href="#aF"/><use transform="matrix(0.05,0,0,0.05,22,0)" xlink:href="#ay"/><use transform="matrix(0.05,0,0,0.05,27.950000000000003,0)" xlink:href="#aE"/><use transform="matrix(0.05,0,0,0.05,36.95,0)" xlink:href="#aD"/><use transform="matrix(0.05,0,0,0.05,40.900000000000006,0)" xlink:href="#aW"/><use transform="matrix(0.05,0,0,0.05,49.900000000000006,0)" xlink:href="#aF"/><use transform="matrix(0.05,0,0,0.05,59.900000000000006,0)" xlink:href="#aG"/></g><path d="M33 0v-38h34V0H33" id="aX"/><g id="n"><use transform="matrix(0.05,0,0,0.05,0,0)" xlink:href="#aX"/><use transform="matrix(0.05,0,0,0.05,5,0)" xlink:href="#aX"/><use transform="matrix(0.05,0,0,0.05,10,0)" xlink:href="#aX"/></g><g id="o"><use transform="matrix(0.05,0,0,0.05,0,0)" xlink:href="#aX"/><use transform="matrix(0.05,0,0,0.05,5,0)" xlink:href="#aX"/><use transform="matrix(0.05,0,0,0.05,10,0)" xlink:href="#aX"/></g><g id="p"><use transform="matrix(0.05,0,0,0.05,0,0)" xlink:href="#aO"/><use transform="matrix(0.05,0,0,0.05,12,0)" xlink:href="#aV"/><use transform="matrix(0.05,0,0,0.05,22,0)" xlink:href="#aV"/><use transform="matrix(0.05,0,0,0.05,32,0)" xlink:href="#at"/><use transform="matrix(0.05,0,0,0.05,35.95,0)" xlink:href="#aD"/><use transform="matrix(0.05,0,0,0.05,39.900000000000006,0)" xlink:href="#aW"/><use transform="matrix(0.05,0,0,0.05,48.900000000000006,0)" xlink:href="#au"/><use transform="matrix(0.05,0,0,0.05,58.900000000000006,0)" xlink:href="#av"/><use transform="matrix(0.05,0,0,0.05,63.900000000000006,0)" xlink:href="#aD"/><use transform="matrix(0.05,0,0,0.05,67.85000000000001,0)" xlink:href="#ax"/><use transform="matrix(0.05,0,0,0.05,77.85000000000001,0)" xlink:href="#aU"/></g><g id="q"><use transform="matrix(0.05,0,0,0.05,0,0)" xlink:href="#as"/><use transform="matrix(0.05,0,0,0.05,12,0)" xlink:href="#ay"/><use transform="matrix(0.05,0,0,0.05,17.95,0)" xlink:href="#ax"/><use transform="matrix(0.05,0,0,0.05,27.950000000000003,0)" xlink:href="#av"/><use transform="matrix(0.05,0,0,0.05,32.95,0)" xlink:href="#ax"/><use transform="matrix(0.05,0,0,0.05,42.95,0)" xlink:href="#aW"/><use transform="matrix(0.05,0,0,0.05,51.95,0)" xlink:href="#ax"/><use transform="matrix(0.05,0,0,0.05,61.95,0)" xlink:href="#at"/><use transform="matrix(0.05,0,0,0.05,65.9,0)" xlink:href="#aG"/></g><g id="r"><use transform="matrix(0.05,0,0,0.05,0,0)" xlink:href="#aS"/><use transform="matrix(0.05,0,0,0.05,12.950000000000001,0)" xlink:href="#ax"/><use transform="matrix(0.05,0,0,0.05,22.950000000000003,0)" xlink:href="#aO"/><use transform="matrix(0.05,0,0,0.05,34.95,0)" xlink:href="#as"/></g><path d="M143 0L79-87 56-68V0H24v-261h32v163l83-92h37l-77 82L181 0h-38" id="aY"/><g id="s"><use transform="matrix(0.05,0,0,0.05,0,0)" xlink:href="#aM"/><use transform="matrix(0.05,0,0,0.05,16.599999999999998,0)" xlink:href="#aF"/><use transform="matrix(0.05,0,0,0.05,26.599999999999994,0)" xlink:href="#aJ"/><use transform="matrix(0.05,0,0,0.05,36.599999999999994,0)" xlink:href="#aB"/><use transform="matrix(0.05,0,0,0.05,48.599999999999994,0)" xlink:href="#ax"/><use transform="matrix(0.05,0,0,0.05,58.599999999999994,0)" xlink:href="#aW"/><use transform="matrix(0.05,0,0,0.05,67.6,0)" xlink:href="#aY"/><use transform="matrix(0.05,0,0,0.05,76.6,0)" xlink:href="#aF"/><use transform="matrix(0.05,0,0,0.05,86.6,0)" xlink:href="#av"/></g><path d="M197 0v-115H63V0H30v-248h33v105h134v-105h34V0h-34" id="aZ"/><g id="t"><use transform="matrix(0.05,0,0,0.05,0,0)" xlink:href="#aZ"/><use transform="matrix(0.05,0,0,0.05,12.950000000000001,0)" xlink:href="#aP"/><use transform="matrix(0.05,0,0,0.05,23.900000000000002,0)" xlink:href="#aP"/><use transform="matrix(0.05,0,0,0.05,34.85,0)" xlink:href="#as"/></g><path d="M190 0L58-211 59 0H30v-248h39L202-35l-2-213h31V0h-41" id="ba"/><path d="M206 0h-36l-40-164L89 0H53L-1-190h32L70-26l43-164h34l41 164 42-164h31" id="bb"/><g id="u"><use transform="matrix(0.05,0,0,0.05,0,0)" xlink:href="#ba"/><use transform="matrix(0.05,0,0,0.05,12.950000000000001,0)" xlink:href="#aF"/><use transform="matrix(0.05,0,0,0.05,22.950000000000003,0)" xlink:href="#av"/><use transform="matrix(0.05,0,0,0.05,27.950000000000003,0)" xlink:href="#bb"/><use transform="matrix(0.05,0,0,0.05,40.900000000000006,0)" xlink:href="#ax"/><use transform="matrix(0.05,0,0,0.05,50.900000000000006,0)" xlink:href="#ay"/><use transform="matrix(0.05,0,0,0.05,56.85,0)" xlink:href="#aY"/></g><g id="v"><use transform="matrix(0.05,0,0,0.05,0,0)" xlink:href="#aP"/><use transform="matrix(0.05,0,0,0.05,10.3,0)" xlink:href="#ay"/><use transform="matrix(0.05,0,0,0.05,16.25,0)" xlink:href="#au"/><use transform="matrix(0.05,0,0,0.05,26.25,0)" xlink:href="#aU"/><use transform="matrix(0.05,0,0,0.05,36.25,0)" xlink:href="#aG"/><use transform="matrix(0.05,0,0,0.05,45.25,0)" xlink:href="#aV"/><use transform="matrix(0.05,0,0,0.05,55.25,0)" xlink:href="#ax"/><use transform="matrix(0.05,0,0,0.05,65.25,0)" xlink:href="#ay"/><use transform="matrix(0.05,0,0,0.05,71.2,0)" xlink:href="#av"/></g><linearGradient gradientUnits="userSpaceOnUse" id="w" x1="72.9" y1="840.4" x2="632.79" y2="840.4"><stop offset="0%" stop-color="#c1e4f7"/><stop offset="51.5%" stop-color="#3aa6dd"/><stop offset="100%" stop-color="#1f80b1"/></linearGradient><g id="x"><use transform="matrix(0.05,0,0,0.05,0,0)" xlink:href="#aC"/><use transform="matrix(0.05,0,0,0.05,12.950000000000001,0)" xlink:href="#aP"/><use transform="matrix(0.05,0,0,0.05,23.900000000000002,0)" xlink:href="#aI"/><use transform="matrix(0.05,0,0,0.05,33.900000000000006,0)" xlink:href="#aB"/></g><linearGradient gradientUnits="userSpaceOnUse" id="y" x1="690.84" y1="840.11" x2="1250.73" y2="840.11"><stop offset="0%" stop-color="#c1e4f7"/><stop offset="51.5%" stop-color="#3aa6dd"/><stop offset="100%" stop-color="#1f80b1"/></linearGradient><g id="z"><use transform="matrix(0.05,0,0,0.05,0,0)" xlink:href="#aP"/><use transform="matrix(0.05,0,0,0.05,10.950000000000001,0)" xlink:href="#aI"/><use transform="matrix(0.05,0,0,0.05,20.950000000000003,0)" xlink:href="#aB"/></g><linearGradient gradientUnits="userSpaceOnUse" id="A" x1="72.9" y1="909.46" x2="632.79" y2="909.46"><stop offset="0%" stop-color="#c1e4f7"/><stop offset="51.5%" stop-color="#3aa6dd"/><stop offset="100%" stop-color="#1f80b1"/></linearGradient><path d="M232-93c-1 65-40 97-104 97C67 4 28-28 28-90v-158h33c8 89-33 224 67 224 102 0 64-133 71-224h33v155" id="bc"/><g id="B"><use transform="matrix(0.05,0,0,0.05,0,0)" xlink:href="#bc"/><use transform="matrix(0.05,0,0,0.05,12.950000000000001,0)" xlink:href="#aC"/><use transform="matrix(0.05,0,0,0.05,25.900000000000002,0)" xlink:href="#as"/></g><linearGradient gradientUnits="userSpaceOnUse" id="C" x1="690.84" y1="909.89" x2="1250.73" y2="909.89"><stop offset="0%" stop-color="#c1e4f7"/><stop offset="51.5%" stop-color="#3aa6dd"/><stop offset="100%" stop-color="#1f80b1"/></linearGradient><g id="D"><use transform="matrix(0.05,0,0,0.05,0,0)" xlink:href="#aP"/><use transform="matrix(0.05,0,0,0.05,10.950000000000001,0)" xlink:href="#aS"/><use transform="matrix(0.05,0,0,0.05,23.900000000000002,0)" xlink:href="#as"/></g><linearGradient gradientUnits="userSpaceOnUse" id="E" x1="72.9" y1="980.86" x2="1250.08" y2="980.86"><stop offset="0%" stop-color="#c1e4f7"/><stop offset="51.5%" stop-color="#3aa6dd"/><stop offset="100%" stop-color="#1f80b1"/></linearGradient><g id="F"><use transform="matrix(0.05,0,0,0.05,0,0)" xlink:href="#aQ"/><use transform="matrix(0.05,0,0,0.05,5,0)" xlink:href="#as"/></g><g id="G"><use transform="matrix(0.05,0,0,0.05,0,0)" xlink:href="#aQ"/><use transform="matrix(0.05,0,0,0.05,5,0)" xlink:href="#aU"/><use transform="matrix(0.05,0,0,0.05,15,0)" xlink:href="#av"/><use transform="matrix(0.05,0,0,0.05,20,0)" xlink:href="#aF"/><use transform="matrix(0.05,0,0,0.05,30,0)" xlink:href="#ay"/><use transform="matrix(0.05,0,0,0.05,35.95,0)" xlink:href="#aw"/><use transform="matrix(0.05,0,0,0.05,40.95,0)" xlink:href="#au"/><use transform="matrix(0.05,0,0,0.05,50.95,0)" xlink:href="#aW"/><use transform="matrix(0.05,0,0,0.05,59.95,0)" xlink:href="#aF"/><use transform="matrix(0.05,0,0,0.05,69.95,0)" xlink:href="#aG"/></g><g id="H"><use transform="matrix(0.05,0,0,0.05,0,0)" xlink:href="#aM"/><use transform="matrix(0.05,0,0,0.05,16.95,0)" xlink:href="#aD"/><use transform="matrix(0.05,0,0,0.05,20.9,0)" xlink:href="#aw"/><use transform="matrix(0.05,0,0,0.05,25.899999999999995,0)" xlink:href="#aD"/></g><path d="M63-220v92h138v28H63V0H30v-248h175v28H63" id="bd"/><g id="I"><use transform="matrix(0.05,0,0,0.05,0,0)" xlink:href="#ba"/><use transform="matrix(0.05,0,0,0.05,12.950000000000001,0)" xlink:href="#aF"/><use transform="matrix(0.05,0,0,0.05,22.950000000000003,0)" xlink:href="#av"/><use transform="matrix(0.05,0,0,0.05,27.950000000000003,0)" xlink:href="#aQ"/><use transform="matrix(0.05,0,0,0.05,32.95,0)" xlink:href="#bd"/></g><g id="J"><use transform="matrix(0.05,0,0,0.05,0,0)" xlink:href="#aI"/><use transform="matrix(0.05,0,0,0.05,10,0)" xlink:href="#aD"/><use transform="matrix(0.05,0,0,0.05,13.949999999999998,0)" xlink:href="#aU"/><use transform="matrix(0.05,0,0,0.05,23.95,0)" xlink:href="#aY"/></g><path d="M177-190C167-65 218 103 67 71c-23-6-38-20-44-43l32-5c15 47 100 32 89-28v-30C133-14 115 1 83 1 29 1 15-40 15-95c0-56 16-97 71-98 29-1 48 16 59 35 1-10 0-23 2-32h30zM94-22c36 0 50-32 50-73 0-42-14-75-50-75-39 0-46 34-46 75s6 73 46 73" id="be"/><g id="K"><use transform="matrix(0.05,0,0,0.05,0,0)" xlink:href="#aC"/><use transform="matrix(0.05,0,0,0.05,12.950000000000001,0)" xlink:href="#au"/><use transform="matrix(0.05,0,0,0.05,22.950000000000003,0)" xlink:href="#av"/><use transform="matrix(0.05,0,0,0.05,27.950000000000003,0)" xlink:href="#au"/><use transform="matrix(0.05,0,0,0.05,37.95,0)" xlink:href="#be"/><use transform="matrix(0.05,0,0,0.05,47.95,0)" xlink:href="#ay"/><use transform="matrix(0.05,0,0,0.05,53.900000000000006,0)" xlink:href="#au"/><use transform="matrix(0.05,0,0,0.05,63.900000000000006,0)" xlink:href="#az"/></g><g id="L"><use transform="matrix(0.05,0,0,0.05,0,0)" xlink:href="#aB"/><use transform="matrix(0.05,0,0,0.05,12,0)" xlink:href="#av"/><use transform="matrix(0.05,0,0,0.05,17,0)" xlink:href="#ay"/><use transform="matrix(0.05,0,0,0.05,22.95,0)" xlink:href="#aF"/><use transform="matrix(0.05,0,0,0.05,32.95,0)" xlink:href="#au"/><use transform="matrix(0.05,0,0,0.05,42.95,0)" xlink:href="#az"/></g><g id="M"><use transform="matrix(0.05,0,0,0.05,0,0)" xlink:href="#aS"/><use transform="matrix(0.05,0,0,0.05,12.950000000000001,0)" xlink:href="#ax"/><use transform="matrix(0.05,0,0,0.05,22.950000000000003,0)" xlink:href="#aO"/><use transform="matrix(0.05,0,0,0.05,34.95,0)" xlink:href="#as"/></g><g id="N"><use transform="matrix(0.05,0,0,0.05,0,0)" xlink:href="#aM"/><use transform="matrix(0.05,0,0,0.05,16.599999999999998,0)" xlink:href="#aF"/><use transform="matrix(0.05,0,0,0.05,26.599999999999994,0)" xlink:href="#aJ"/><use transform="matrix(0.05,0,0,0.05,36.599999999999994,0)" xlink:href="#aB"/><use transform="matrix(0.05,0,0,0.05,48.599999999999994,0)" xlink:href="#ax"/><use transform="matrix(0.05,0,0,0.05,58.599999999999994,0)" xlink:href="#aW"/><use transform="matrix(0.05,0,0,0.05,67.6,0)" xlink:href="#aY"/><use transform="matrix(0.05,0,0,0.05,76.6,0)" xlink:href="#aF"/><use transform="matrix(0.05,0,0,0.05,86.6,0)" xlink:href="#av"/></g><g id="O"><use transform="matrix(0.05,0,0,0.05,0,0)" xlink:href="#aZ"/><use transform="matrix(0.05,0,0,0.05,12.950000000000001,0)" xlink:href="#aP"/><use transform="matrix(0.05,0,0,0.05,23.900000000000002,0)" xlink:href="#aP"/><use transform="matrix(0.05,0,0,0.05,34.85,0)" xlink:href="#as"/></g><g id="P"><use transform="matrix(0.05,0,0,0.05,0,0)" xlink:href="#as"/><use transform="matrix(0.05,0,0,0.05,12,0)" xlink:href="#ax"/><use transform="matrix(0.05,0,0,0.05,22,0)" xlink:href="#ay"/><use transform="matrix(0.05,0,0,0.05,27.950000000000003,0)" xlink:href="#av"/><use transform="matrix(0.05,0,0,0.05,32.95,0)" xlink:href="#au"/><use transform="matrix(0.05,0,0,0.05,42.95,0)" xlink:href="#aJ"/><use transform="matrix(0.05,0,0,0.05,52.95,0)" xlink:href="#at"/><use transform="matrix(0.05,0,0,0.05,56.900000000000006,0)" xlink:href="#aF"/></g><use transform="matrix(0.05,0,0,0.05,0,0)" xlink:href="#aS" id="Q"/><g id="R"><use transform="matrix(0.05,0,0,0.05,0,0)" xlink:href="#aI"/><use transform="matrix(0.05,0,0,0.05,10,0)" xlink:href="#aD"/><use transform="matrix(0.05,0,0,0.05,13.949999999999998,0)" xlink:href="#aU"/><use transform="matrix(0.05,0,0,0.05,23.95,0)" xlink:href="#aY"/></g><path d="M179-190L93 31C79 59 56 82 12 73V49c39 6 53-20 64-50L1-190h34L92-34l54-156h33" id="bf"/><g id="S"><use transform="matrix(0.05,0,0,0.05,0,0)" xlink:href="#aI"/><use transform="matrix(0.05,0,0,0.05,10,0)" xlink:href="#aD"/><use transform="matrix(0.05,0,0,0.05,13.949999999999998,0)" xlink:href="#aJ"/><use transform="matrix(0.05,0,0,0.05,23.95,0)" xlink:href="#ay"/><use transform="matrix(0.05,0,0,0.05,29.899999999999995,0)" xlink:href="#au"/><use transform="matrix(0.05,0,0,0.05,39.9,0)" xlink:href="#ay"/><use transform="matrix(0.05,0,0,0.05,45.85,0)" xlink:href="#bf"/></g><path d="M0 4l72-265h28L28 4H0" id="bg"/><g id="T"><use transform="matrix(0.05,0,0,0.05,0,0)" xlink:href="#ba"/><use transform="matrix(0.05,0,0,0.05,12.950000000000001,0)" xlink:href="#au"/><use transform="matrix(0.05,0,0,0.05,22.950000000000003,0)" xlink:href="#av"/><use transform="matrix(0.05,0,0,0.05,27.950000000000003,0)" xlink:href="#aD"/><use transform="matrix(0.05,0,0,0.05,31.900000000000002,0)" xlink:href="#aE"/><use transform="matrix(0.05,0,0,0.05,40.900000000000006,0)" xlink:href="#aF"/><use transform="matrix(0.05,0,0,0.05,50.900000000000006,0)" xlink:href="#bg"/><use transform="matrix(0.05,0,0,0.05,55.900000000000006,0)" xlink:href="#aA"/><use transform="matrix(0.05,0,0,0.05,69.9,0)" xlink:href="#aB"/></g><g id="U"><use transform="matrix(0.05,0,0,0.05,0,0)" xlink:href="#aI"/><use transform="matrix(0.05,0,0,0.05,10,0)" xlink:href="#aD"/><use transform="matrix(0.05,0,0,0.05,13.949999999999998,0)" xlink:href="#aJ"/><use transform="matrix(0.05,0,0,0.05,23.95,0)" xlink:href="#ay"/><use transform="matrix(0.05,0,0,0.05,29.899999999999995,0)" xlink:href="#au"/><use transform="matrix(0.05,0,0,0.05,39.9,0)" xlink:href="#ay"/><use transform="matrix(0.05,0,0,0.05,45.85,0)" xlink:href="#bf"/></g><g id="V"><use transform="matrix(0.05,0,0,0.05,0,0)" xlink:href="#ax"/><use transform="matrix(0.05,0,0,0.05,10,0)" xlink:href="#ay"/></g><g id="W"><use transform="matrix(0.05,0,0,0.05,0,0)" xlink:href="#aC"/><use transform="matrix(0.05,0,0,0.05,12.950000000000001,0)" xlink:href="#ay"/><use transform="matrix(0.05,0,0,0.05,18.900000000000002,0)" xlink:href="#aD"/><use transform="matrix(0.05,0,0,0.05,22.85,0)" xlink:href="#aE"/><use transform="matrix(0.05,0,0,0.05,31.85,0)" xlink:href="#aF"/><use transform="matrix(0.05,0,0,0.05,41.85,0)" xlink:href="#ay"/></g><path d="M16-82v-28h88v28H16" id="bh"/><g id="X"><use transform="matrix(0.05,0,0,0.05,0,0)" xlink:href="#as"/><use transform="matrix(0.05,0,0,0.05,12,0)" xlink:href="#at"/><use transform="matrix(0.05,0,0,0.05,15.949999999999998,0)" xlink:href="#au"/><use transform="matrix(0.05,0,0,0.05,25.950000000000003,0)" xlink:href="#av"/><use transform="matrix(0.05,0,0,0.05,30.950000000000003,0)" xlink:href="#aw"/><use transform="matrix(0.05,0,0,0.05,35.95,0)" xlink:href="#ax"/><use transform="matrix(0.05,0,0,0.05,45.95,0)" xlink:href="#ay"/><use transform="matrix(0.05,0,0,0.05,51.900000000000006,0)" xlink:href="#az"/><use transform="matrix(0.05,0,0,0.05,66.85000000000001,0)" xlink:href="#bh"/><use transform="matrix(0.05,0,0,0.05,72.80000000000001,0)" xlink:href="#aG"/><use transform="matrix(0.05,0,0,0.05,81.80000000000001,0)" xlink:href="#aV"/><use transform="matrix(0.05,0,0,0.05,91.80000000000001,0)" xlink:href="#aF"/><use transform="matrix(0.05,0,0,0.05,101.80000000000001,0)" xlink:href="#aW"/><use transform="matrix(0.05,0,0,0.05,110.80000000000001,0)" xlink:href="#aD"/><use transform="matrix(0.05,0,0,0.05,114.75,0)" xlink:href="#aw"/><use transform="matrix(0.05,0,0,0.05,119.75,0)" xlink:href="#aD"/><use transform="matrix(0.05,0,0,0.05,123.7,0)" xlink:href="#aW"/></g><path d="M85-194c31 0 48 13 60 33l-1-100h32l1 261h-30c-2-10 0-23-3-31C134-8 116 4 85 4 32 4 16-35 15-94c0-66 23-100 70-100zm9 24c-40 0-46 34-46 75 0 40 6 74 45 74 42 0 51-32 51-76 0-42-9-74-50-73" id="bi"/><g id="Y"><use transform="matrix(0.05,0,0,0.05,0,0)" xlink:href="#aW"/><use transform="matrix(0.05,0,0,0.05,9,0)" xlink:href="#ax"/><use transform="matrix(0.05,0,0,0.05,19,0)" xlink:href="#bi"/><use transform="matrix(0.05,0,0,0.05,29,0)" xlink:href="#aF"/></g><linearGradient gradientUnits="userSpaceOnUse" id="Z" x1="1361.61" y1="780.23" x2="1611.89" y2="780.23"><stop offset="0%" stop-color="#c1e4f7"/><stop offset="51.5%" stop-color="#3aa6dd"/><stop offset="100%" stop-color="#1f80b1"/></linearGradient><g id="aa"><use transform="matrix(0.05,0,0,0.05,0,0)" xlink:href="#as"/><use transform="matrix(0.05,0,0,0.05,12,0)" xlink:href="#at"/><use transform="matrix(0.05,0,0,0.05,15.949999999999998,0)" xlink:href="#au"/><use transform="matrix(0.05,0,0,0.05,25.950000000000003,0)" xlink:href="#av"/><use transform="matrix(0.05,0,0,0.05,30.950000000000003,0)" xlink:href="#aw"/><use transform="matrix(0.05,0,0,0.05,35.95,0)" xlink:href="#ax"/><use transform="matrix(0.05,0,0,0.05,45.95,0)" xlink:href="#ay"/><use transform="matrix(0.05,0,0,0.05,51.900000000000006,0)" xlink:href="#az"/></g><path d="M84 4C-5 8 30-112 23-190h32v120c0 31 7 50 39 49 72-2 45-101 50-169h31l1 190h-30c-1-10 1-25-2-33-11 22-28 36-60 37" id="bj"/><g id="ab"><use transform="matrix(0.05,0,0,0.05,0,0)" xlink:href="#as"/><use transform="matrix(0.05,0,0,0.05,12,0)" xlink:href="#at"/><use transform="matrix(0.05,0,0,0.05,15.949999999999998,0)" xlink:href="#au"/><use transform="matrix(0.05,0,0,0.05,25.950000000000003,0)" xlink:href="#av"/><use transform="matrix(0.05,0,0,0.05,30.950000000000003,0)" xlink:href="#aw"/><use transform="matrix(0.05,0,0,0.05,35.95,0)" xlink:href="#ax"/><use transform="matrix(0.05,0,0,0.05,45.95,0)" xlink:href="#ay"/><use transform="matrix(0.05,0,0,0.05,51.900000000000006,0)" xlink:href="#az"/><use transform="matrix(0.05,0,0,0.05,66.85000000000001,0)" xlink:href="#bg"/><use transform="matrix(0.05,0,0,0.05,71.85000000000001,0)" xlink:href="#aI"/><use transform="matrix(0.05,0,0,0.05,81.85000000000001,0)" xlink:href="#au"/><use transform="matrix(0.05,0,0,0.05,91.85000000000001,0)" xlink:href="#aU"/><use transform="matrix(0.05,0,0,0.05,101.85000000000001,0)" xlink:href="#be"/><use transform="matrix(0.05,0,0,0.05,111.85000000000001,0)" xlink:href="#bj"/><use transform="matrix(0.05,0,0,0.05,121.85000000000001,0)" xlink:href="#au"/><use transform="matrix(0.05,0,0,0.05,131.85000000000002,0)" xlink:href="#be"/><use transform="matrix(0.05,0,0,0.05,141.85000000000002,0)" xlink:href="#aF"/></g><g id="ac"><use transform="matrix(0.05,0,0,0.05,0,0)" xlink:href="#aO"/><use transform="matrix(0.05,0,0,0.05,12,0)" xlink:href="#bi"/><use transform="matrix(0.05,0,0,0.05,22,0)" xlink:href="#au"/><use transform="matrix(0.05,0,0,0.05,32,0)" xlink:href="#aV"/><use transform="matrix(0.05,0,0,0.05,42,0)" xlink:href="#av"/><use transform="matrix(0.05,0,0,0.05,47,0)" xlink:href="#au"/><use transform="matrix(0.05,0,0,0.05,57,0)" xlink:href="#av"/><use transform="matrix(0.05,0,0,0.05,62,0)" xlink:href="#aD"/><use transform="matrix(0.05,0,0,0.05,65.95,0)" xlink:href="#ax"/><use transform="matrix(0.05,0,0,0.05,75.95,0)" xlink:href="#aU"/></g><path d="M26 75v-336h71v23H56V52h41v23H26" id="bk"/><g id="ad"><use transform="matrix(0.05,0,0,0.05,0,0)" xlink:href="#bk"/><use transform="matrix(0.05,0,0,0.05,5,0)" xlink:href="#aA"/><use transform="matrix(0.05,0,0,0.05,19,0)" xlink:href="#aV"/><use transform="matrix(0.05,0,0,0.05,29,0)" xlink:href="#av"/><use transform="matrix(0.05,0,0,0.05,34,0)" xlink:href="#aD"/><use transform="matrix(0.05,0,0,0.05,37.95,0)" xlink:href="#ax"/><use transform="matrix(0.05,0,0,0.05,47.95,0)" xlink:href="#aU"/><use transform="matrix(0.05,0,0,0.05,57.95,0)" xlink:href="#au"/><use transform="matrix(0.05,0,0,0.05,67.95,0)" xlink:href="#at"/><use transform="matrix(0.05,0,0,0.05,71.9,0)" xlink:href="#aX"/></g><path d="M141 0L90-78 38 0H4l68-98-65-92h35l48 74 47-74h35l-64 92 68 98h-35" id="bl"/><path d="M33-154v-36h34v36H33zM33 0v-36h34V0H33" id="bm"/><g id="ae"><use transform="matrix(0.05,0,0,0.05,0,0)" xlink:href="#aL"/><use transform="matrix(0.05,0,0,0.05,12,0)" xlink:href="#bl"/><use transform="matrix(0.05,0,0,0.05,21,0)" xlink:href="#bm"/></g><path d="M153-248C145-148 188 4 80 4 36 3 13-21 6-62l32-5c4 25 16 42 43 43 27 0 39-20 39-49v-147H72v-28h81" id="bn"/><path d="M68-38c1 34 0 65-14 84H32c9-13 17-26 17-46H33v-38h35" id="bo"/><g id="af"><use transform="matrix(0.05,0,0,0.05,0,0)" xlink:href="#bn"/><use transform="matrix(0.05,0,0,0.05,9,0)" xlink:href="#au"/><use transform="matrix(0.05,0,0,0.05,19,0)" xlink:href="#aE"/><use transform="matrix(0.05,0,0,0.05,28,0)" xlink:href="#au"/><use transform="matrix(0.05,0,0,0.05,38,0)" xlink:href="#bg"/><use transform="matrix(0.05,0,0,0.05,43,0)" xlink:href="#bn"/><use transform="matrix(0.05,0,0,0.05,52,0)" xlink:href="#ba"/><use transform="matrix(0.05,0,0,0.05,64.95,0)" xlink:href="#aQ"/><use transform="matrix(0.05,0,0,0.05,69.95,0)" xlink:href="#bo"/></g><g id="ag"><use transform="matrix(0.05,0,0,0.05,0,0)" xlink:href="#aB"/><use transform="matrix(0.05,0,0,0.05,12,0)" xlink:href="#bb"/><use transform="matrix(0.05,0,0,0.05,24.950000000000003,0)" xlink:href="#aD"/><use transform="matrix(0.05,0,0,0.05,28.900000000000002,0)" xlink:href="#aw"/><use transform="matrix(0.05,0,0,0.05,33.900000000000006,0)" xlink:href="#av"/><use transform="matrix(0.05,0,0,0.05,38.900000000000006,0)" xlink:href="#bg"/><use transform="matrix(0.05,0,0,0.05,43.900000000000006,0)" xlink:href="#aS"/><use transform="matrix(0.05,0,0,0.05,56.85,0)" xlink:href="#bh"/><use transform="matrix(0.05,0,0,0.05,62.80000000000001,0)" xlink:href="#aK"/><use transform="matrix(0.05,0,0,0.05,74.80000000000001,0)" xlink:href="#ay"/><use transform="matrix(0.05,0,0,0.05,80.75000000000001,0)" xlink:href="#aD"/><use transform="matrix(0.05,0,0,0.05,84.70000000000002,0)" xlink:href="#bi"/><use transform="matrix(0.05,0,0,0.05,94.70000000000002,0)" xlink:href="#be"/><use transform="matrix(0.05,0,0,0.05,104.7,0)" xlink:href="#aF"/><use transform="matrix(0.05,0,0,0.05,114.7,0)" xlink:href="#bo"/></g><path d="M3 75V52h41v-290H3v-23h71V75H3" id="bp"/><g id="ah"><use transform="matrix(0.05,0,0,0.05,0,0)" xlink:href="#aF"/><use transform="matrix(0.05,0,0,0.05,10,0)" xlink:href="#av"/><use transform="matrix(0.05,0,0,0.05,15,0)" xlink:href="#aW"/><use transform="matrix(0.05,0,0,0.05,24,0)" xlink:href="#aX"/><use transform="matrix(0.05,0,0,0.05,29,0)" xlink:href="#bp"/></g><g id="aj"><use transform="matrix(0.05,0,0,0.05,0,0)" xlink:href="#aO"/><use transform="matrix(0.05,0,0,0.05,12,0)" xlink:href="#as"/><use transform="matrix(0.05,0,0,0.05,24,0)" xlink:href="#aQ"/></g><g id="ak"><use transform="matrix(0.05,0,0,0.05,0,0)" xlink:href="#aK"/><use transform="matrix(0.05,0,0,0.05,12,0)" xlink:href="#ay"/><use transform="matrix(0.05,0,0,0.05,17.95,0)" xlink:href="#aD"/><use transform="matrix(0.05,0,0,0.05,21.9,0)" xlink:href="#bi"/><use transform="matrix(0.05,0,0,0.05,31.899999999999995,0)" xlink:href="#be"/><use transform="matrix(0.05,0,0,0.05,41.9,0)" xlink:href="#aF"/></g><use transform="matrix(0.05,0,0,0.05,0,0)" xlink:href="#aS" id="al"/><g id="am"><use transform="matrix(0.05,0,0,0.05,0,0)" xlink:href="#bn"/><use transform="matrix(0.05,0,0,0.05,9,0)" xlink:href="#au"/><use transform="matrix(0.05,0,0,0.05,19,0)" xlink:href="#aE"/><use transform="matrix(0.05,0,0,0.05,28,0)" xlink:href="#au"/><use transform="matrix(0.05,0,0,0.05,38,0)" xlink:href="#bg"/><use transform="matrix(0.05,0,0,0.05,43,0)" xlink:href="#aB"/><use transform="matrix(0.05,0,0,0.05,55,0)" xlink:href="#bb"/><use transform="matrix(0.05,0,0,0.05,67.95,0)" xlink:href="#aD"/><use transform="matrix(0.05,0,0,0.05,71.9,0)" xlink:href="#aw"/><use transform="matrix(0.05,0,0,0.05,76.9,0)" xlink:href="#av"/><use transform="matrix(0.05,0,0,0.05,81.9,0)" xlink:href="#bg"/><use transform="matrix(0.05,0,0,0.05,86.9,0)" xlink:href="#aA"/><use transform="matrix(0.05,0,0,0.05,100.9,0)" xlink:href="#av"/><use transform="matrix(0.05,0,0,0.05,105.9,0)" xlink:href="#aT"/><use transform="matrix(0.05,0,0,0.05,115.9,0)" xlink:href="#aF"/><use transform="matrix(0.05,0,0,0.05,125.9,0)" xlink:href="#ay"/></g><g id="an"><use transform="matrix(0.05,0,0,0.05,0,0)" xlink:href="#aI"/><use transform="matrix(0.05,0,0,0.05,10,0)" xlink:href="#au"/><use transform="matrix(0.05,0,0,0.05,20,0)" xlink:href="#aU"/><use transform="matrix(0.05,0,0,0.05,30,0)" xlink:href="#be"/><use transform="matrix(0.05,0,0,0.05,40,0)" xlink:href="#bj"/><use transform="matrix(0.05,0,0,0.05,50,0)" xlink:href="#au"/><use transform="matrix(0.05,0,0,0.05,60,0)" xlink:href="#be"/><use transform="matrix(0.05,0,0,0.05,70,0)" xlink:href="#aF"/></g><path d="M240 0l2-218c-23 76-54 145-80 218h-23L58-218 59 0H30v-248h44l77 211c21-75 51-140 76-211h43V0h-30" id="bq"/><g id="ao"><use transform="matrix(0.05,0,0,0.05,0,0)" xlink:href="#bq"/><use transform="matrix(0.05,0,0,0.05,14.950000000000001,0)" xlink:href="#ax"/><use transform="matrix(0.05,0,0,0.05,24.950000000000003,0)" xlink:href="#aJ"/><use transform="matrix(0.05,0,0,0.05,34.95,0)" xlink:href="#aD"/><use transform="matrix(0.05,0,0,0.05,38.900000000000006,0)" xlink:href="#at"/><use transform="matrix(0.05,0,0,0.05,42.85000000000001,0)" xlink:href="#aF"/><use transform="matrix(0.05,0,0,0.05,52.85,0)" xlink:href="#bg"/><use transform="matrix(0.05,0,0,0.05,57.85,0)" xlink:href="#aC"/><use transform="matrix(0.05,0,0,0.05,70.80000000000001,0)" xlink:href="#aF"/><use transform="matrix(0.05,0,0,0.05,80.80000000000001,0)" xlink:href="#aG"/><use transform="matrix(0.05,0,0,0.05,89.80000000000001,0)" xlink:href="#aY"/><use transform="matrix(0.05,0,0,0.05,98.80000000000001,0)" xlink:href="#av"/><use transform="matrix(0.05,0,0,0.05,103.80000000000001,0)" xlink:href="#ax"/><use transform="matrix(0.05,0,0,0.05,113.80000000000001,0)" xlink:href="#aV"/></g><g id="ap"><use transform="matrix(0.05,0,0,0.05,0,0)" xlink:href="#aA"/><use transform="matrix(0.05,0,0,0.05,14,0)" xlink:href="#aU"/><use transform="matrix(0.05,0,0,0.05,24,0)" xlink:href="#at"/><use transform="matrix(0.05,0,0,0.05,27.950000000000003,0)" xlink:href="#bf"/></g><g id="aq"><use transform="matrix(0.05,0,0,0.05,0,0)" xlink:href="#aC"/><use transform="matrix(0.05,0,0,0.05,12.950000000000001,0)" xlink:href="#aF"/><use transform="matrix(0.05,0,0,0.05,22.950000000000003,0)" xlink:href="#aE"/><use transform="matrix(0.05,0,0,0.05,31.950000000000003,0)" xlink:href="#aD"/><use transform="matrix(0.05,0,0,0.05,35.900000000000006,0)" xlink:href="#aW"/><use transform="matrix(0.05,0,0,0.05,44.900000000000006,0)" xlink:href="#aF"/></g><g id="ar"><use transform="matrix(0.05,0,0,0.05,0,0)" xlink:href="#aO"/><use transform="matrix(0.05,0,0,0.05,12,0)" xlink:href="#bi"/><use transform="matrix(0.05,0,0,0.05,22,0)" xlink:href="#au"/><use transform="matrix(0.05,0,0,0.05,32,0)" xlink:href="#aV"/><use transform="matrix(0.05,0,0,0.05,42,0)" xlink:href="#av"/><use transform="matrix(0.05,0,0,0.05,47,0)" xlink:href="#aF"/><use transform="matrix(0.05,0,0,0.05,57,0)" xlink:href="#ay"/></g></defs></g></svg>