<svg xmlns="http://www.w3.org/2000/svg" xmlns:xlink="http://www.w3.org/1999/xlink" xmlns:lucid="lucid" width="1310" height="960"><g transform="translate(-40 -140)" lucid:page-tab-id="0_0"><path d="M0 0h1760v1360H0z" fill="#fff"/><path d="M80 160h160v60H80z" stroke="#000" stroke-width="2" fill="#c1e4f7"/><use xlink:href="#a" transform="matrix(1,0,0,1,85,165) translate(47.5 30.025)"/><path d="M260 160h160v60H260z" stroke="#000" stroke-width="2" fill="#c1e4f7"/><use xlink:href="#a" transform="matrix(1,0,0,1,265,165) translate(47.5 30.025)"/><path d="M80 260h340v60H80z" stroke="#000" stroke-width="2" fill="#c1e4f7"/><use xlink:href="#b" transform="matrix(1,0,0,1,85,265) translate(131.675 30.025)"/><use xlink:href="#c" transform="matrix(1,0,0,1,85,265) translate(153.32500000000002 30.025)"/><path d="M160 320h160v60H160z" stroke="#000" stroke-width="2" fill="#c1e4f7"/><use xlink:href="#d" transform="matrix(1,0,0,1,165,325) translate(4.599999999999994 30.025)"/><use xlink:href="#e" transform="matrix(1,0,0,1,165,325) translate(75.45 30.025)"/><path d="M324 560c30.93 0 56 17.9 56 40s-25.07 40-56 40H156c-30.93 0-56-17.9-56-40s25.07-40 56-40z" stroke="#000" stroke-width="2" fill="#ffdba9"/><use xlink:href="#f" transform="matrix(1,0,0,1,105,565) translate(17.55000000000001 38.4625)"/><use xlink:href="#g" transform="matrix(1,0,0,1,105,565) translate(59.45000000000002 38.4625)"/><use xlink:href="#h" transform="matrix(1,0,0,1,105,565) translate(110.05000000000001 38.4625)"/><use xlink:href="#i" transform="matrix(1,0,0,1,105,565) translate(131.5 38.4625)"/><use xlink:href="#j" transform="matrix(1,0,0,1,105,565) translate(146.5 38.4625)"/><use xlink:href="#k" transform="matrix(1,0,0,1,105,565) translate(158.5 38.4625)"/><use xlink:href="#l" transform="matrix(1,0,0,1,105,565) translate(203.5 38.4625)"/><path d="M240 380h220v50H240z" stroke="#000" stroke-opacity="0" stroke-width="2" fill="#fff" fill-opacity="0"/><use xlink:href="#b" transform="matrix(1,0,0,1,245,385) translate(8.174999999999997 24.4)"/><use xlink:href="#m" transform="matrix(1,0,0,1,245,385) translate(29.824999999999996 24.4)"/><use xlink:href="#n" transform="matrix(1,0,0,1,245,385) translate(87.825 24.4)"/><use xlink:href="#k" transform="matrix(1,0,0,1,245,385) translate(113.825 24.4)"/><use xlink:href="#o" transform="matrix(1,0,0,1,245,385) translate(158.825 24.4)"/><path d="M160 720h160v120H160z" stroke="#000" stroke-width="2" fill="#c7e8ac"/><use xlink:href="#p" transform="matrix(1,0,0,1,165,725) translate(44.55 59.0875)"/><path d="M664 804c-13.25 0-24-10.75-24-24 0-10.6 6.5-19.55 16.58-22.83C656 726 696 720 712 732c8-18 48-12 48 6 24-6 48 18 32 48 16 24 0 54-32 42-8 15.6-40 15.6-48 0-16 12-48 6-48-24z" stroke="#000" stroke-width="2" fill="#e5e5e5"/><use xlink:href="#q" transform="matrix(1,0,0,1,645,725) translate(9.949999999999996 59.0875)"/><use xlink:href="#r" transform="matrix(1,0,0,1,645,725) translate(91.15 59.0875)"/><path d="M1080 720h160v120h-160z" stroke="#000" stroke-width="2" fill="#c7e8ac"/><use xlink:href="#p" transform="matrix(1,0,0,1,1085,725) translate(44.55 59.0875)"/><path d="M990 160h160v60H990z" stroke="#000" stroke-width="2" fill="#c1e4f7"/><use xlink:href="#a" transform="matrix(1,0,0,1,995,165) translate(47.5 30.025)"/><path d="M1170 160h160v60h-160z" stroke="#000" stroke-width="2" fill="#c1e4f7"/><use xlink:href="#a" transform="matrix(1,0,0,1,1175,165) translate(47.5 30.025)"/><path d="M990 260h340v60H990z" stroke="#000" stroke-width="2" fill="#c1e4f7"/><use xlink:href="#b" transform="matrix(1,0,0,1,995,265) translate(131.675 30.025)"/><use xlink:href="#c" transform="matrix(1,0,0,1,995,265) translate(153.32500000000002 30.025)"/><path d="M160 222v18.5" stroke="#000" stroke-width="2" fill="none"/><path d="M161 222.03h-2V221h2z"/><path d="M160 255.76l-4.64-14.26h9.28z" stroke="#000" stroke-width="2"/><path d="M340 222v18.5" stroke="#000" stroke-width="2" fill="none"/><path d="M341 222.03h-2V221h2z"/><path d="M340 255.76l-4.64-14.26h9.28z" stroke="#000" stroke-width="2"/><path d="M260 650h180v60H260z" stroke="#000" stroke-opacity="0" stroke-width="2" fill="#fff" fill-opacity="0"/><use xlink:href="#s" transform="matrix(1,0,0,1,265,655) translate(2.075000000000003 30.025)"/><use xlink:href="#t" transform="matrix(1,0,0,1,265,655) translate(36.075 30.025)"/><use xlink:href="#u" transform="matrix(1,0,0,1,265,655) translate(61.075 30.025)"/><use xlink:href="#v" transform="matrix(1,0,0,1,265,655) translate(81.075 30.025)"/><use xlink:href="#o" transform="matrix(1,0,0,1,265,655) translate(124.925 30.025)"/><path d="M221.33 718v-88h29.34v70.5" stroke="#000" stroke-width="2" fill="none"/><path d="M222.33 719h-2v-1.03h2z"/><path d="M250.67 715.76l-4.64-14.26h9.27z" stroke="#000" stroke-width="2"/><path d="M322 780h298.5" stroke="#000" stroke-width="2" fill="none"/><path d="M322.03 781H321v-2h1.03z"/><path d="M635.76 780l-14.26 4.64v-9.28z" stroke="#000" stroke-width="2"/><path d="M380 720h250v74.8H380z" stroke="#000" stroke-opacity="0" stroke-width="2" fill="#fff" fill-opacity="0"/><use xlink:href="#w" transform="matrix(1,0,0,1,385,725) translate(15.125 24.55625)"/><use xlink:href="#u" transform="matrix(1,0,0,1,385,725) translate(40.125 24.55625)"/><use xlink:href="#x" transform="matrix(1,0,0,1,385,725) translate(60.125 24.55625)"/><use xlink:href="#y" transform="matrix(1,0,0,1,385,725) translate(143.925 24.55625)"/><use xlink:href="#z" transform="matrix(1,0,0,1,385,725) translate(210.925 24.55625)"/><use xlink:href="#A" transform="matrix(1,0,0,1,385,725) translate(17.625 46.15625)"/><use xlink:href="#n" transform="matrix(1,0,0,1,385,725) translate(65.525 46.15625)"/><use xlink:href="#v" transform="matrix(1,0,0,1,385,725) translate(91.525 46.15625)"/><use xlink:href="#B" transform="matrix(1,0,0,1,385,725) translate(135.375 46.15625)"/><use xlink:href="#C" transform="matrix(1,0,0,1,385,725) translate(183.375 46.15625)"/><path d="M796.73 780h263.77" stroke="#000" stroke-width="2" fill="none"/><path d="M796.76 781h-1.36l.66-2h.7z"/><path d="M1075.76 780l-14.26 4.64v-9.28z" stroke="#000" stroke-width="2"/><path d="M1080 430h160v120h-160z" stroke="#000" stroke-width="2" fill="#d1bcd2"/><use xlink:href="#b" transform="matrix(1,0,0,1,1085,435) translate(36.675 14.4)"/><use xlink:href="#D" transform="matrix(1,0,0,1,1085,435) translate(58.324999999999996 14.4)"/><use xlink:href="#E" transform="matrix(1,0,0,1,1085,435) translate(32.574999999999996 36)"/><path d="M160 430h160v80H160z" stroke="#000" stroke-width="2" fill="#d1bcd2"/><use xlink:href="#b" transform="matrix(1,0,0,1,165,435) translate(36.675 27.525)"/><use xlink:href="#D" transform="matrix(1,0,0,1,165,435) translate(58.324999999999996 27.525)"/><use xlink:href="#F" transform="matrix(1,0,0,1,165,435) translate(37.62499999999999 49.125)"/><path d="M240 382v28.5" stroke="#000" stroke-width="2" fill="none"/><path d="M241 382.03h-2V381h2z"/><path d="M240 425.76l-4.64-14.26h9.28z" stroke="#000" stroke-width="2"/><path d="M240 512v28.5" stroke="#000" stroke-width="2" fill="none"/><path d="M241 512.03h-2V511h2z"/><path d="M240 555.76l-4.64-14.26h9.28z" stroke="#000" stroke-width="2"/><path d="M1160 718V569.5" stroke="#000" stroke-width="2" fill="none"/><path d="M1161 719h-2v-1.03h2z"/><path d="M1160 554.24l4.64 14.26h-9.28z" stroke="#000" stroke-width="2"/><path d="M1080 320h160v60h-160z" stroke="#000" stroke-width="2" fill="#c1e4f7"/><use xlink:href="#d" transform="matrix(1,0,0,1,1085,325) translate(4.599999999999994 30.025)"/><use xlink:href="#e" transform="matrix(1,0,0,1,1085,325) translate(75.45 30.025)"/><path d="M1160 428v-28.5" stroke="#000" stroke-width="2" fill="none"/><path d="M1161 429h-2v-1.03h2z"/><path d="M1160 384.24l4.64 14.26h-9.28z" stroke="#000" stroke-width="2"/><path d="M1072 258v-18.5" stroke="#000" stroke-width="2" fill="none"/><path d="M1073 259h-2v-1.03h2z"/><path d="M1072 224.24l4.64 14.26h-9.28z" stroke="#000" stroke-width="2"/><path d="M1245.33 258v-18.5" stroke="#000" stroke-width="2" fill="none"/><path d="M1246.33 259h-2v-1.03h2z"/><path d="M1245.33 224.24l4.64 14.26h-9.27z" stroke="#000" stroke-width="2"/><path d="M1078 801.33H817.45" stroke="#000" stroke-width="2" fill="none"/><path d="M1079 802.33h-1.03v-2h1.03z"/><path d="M802.2 801.33l14.25-4.63v9.27z" stroke="#000" stroke-width="2"/><path d="M662.13 806.63H492.07v.04H339.5" stroke="#000" stroke-width="2" fill="none"/><path d="M663.2 807.63h-1.1v-2h.95z"/><path d="M324.24 806.67l14.26-4.64v9.27z" stroke="#000" stroke-width="2"/><path d="M850 800h180v60H850z" stroke="#000" stroke-opacity="0" stroke-width="2" fill="#fff" fill-opacity="0"/><use xlink:href="#G" transform="matrix(1,0,0,1,855,805) translate(29.074999999999996 30.025)"/><use xlink:href="#H" transform="matrix(1,0,0,1,855,805) translate(94.975 30.025)"/><path d="M182.67 642v58.5" stroke="#000" stroke-width="2" fill="none"/><path d="M183.67 642.03h-2V641h2z"/><path d="M182.67 715.76l-4.64-14.26h9.27z" stroke="#000" stroke-width="2"/><path d="M60 645.2h120V720H60z" stroke="#000" stroke-opacity="0" stroke-width="2" fill="#fff" fill-opacity="0"/><g><use xlink:href="#I" transform="matrix(1,0,0,1,65,650.2) translate(10.574999999999996 24.55625)"/><use xlink:href="#J" transform="matrix(1,0,0,1,65,650.2) translate(61.475 24.55625)"/><use xlink:href="#K" transform="matrix(1,0,0,1,65,650.2) translate(18.75 46.15625)"/></g><path d="M1208 480c17.67 0 32 15.67 32 35s-14.33 35-32 35h-96c-17.67 0-32-15.67-32-35s14.33-35 32-35z" stroke="#000" stroke-width="2" fill="#ffdba9"/><g><use xlink:href="#b" transform="matrix(1,0,0,1,1085,485) translate(12.380000000000004 21.9)"/><use xlink:href="#m" transform="matrix(1,0,0,1,1085,485) translate(34.03 21.9)"/><use xlink:href="#L" transform="matrix(1,0,0,1,1085,485) translate(92.03 21.9)"/><use xlink:href="#k" transform="matrix(1,0,0,1,1085,485) translate(31.005000000000006 43.5)"/><use xlink:href="#o" transform="matrix(1,0,0,1,1085,485) translate(76.005 43.5)"/></g><path d="M300 920h20v60h-20z" stroke="#000" stroke-width="2" fill="#c1e4f7"/><path d="M320 920h160v60H320z" stroke="#000" stroke-width="2" fill="#99d2f2"/><path d="M480 920h20v60h-20z" stroke="#000" stroke-width="2" fill="#c1e4f7"/><path d="M500 920h160v60H500zM675.56 920H800v60H675.56z" stroke="#000" stroke-width="2" fill="#99d2f2"/><path d="M120 920h180v60H120z" stroke="#000" stroke-opacity="0" stroke-width="2" fill="#fff" fill-opacity="0"/><g><use xlink:href="#G" transform="matrix(1,0,0,1,125,925) translate(20.049999999999997 30.025)"/><use xlink:href="#M" transform="matrix(1,0,0,1,125,925) translate(85.95 30.025)"/></g><path d="M360 930h120v40H360z" stroke="#000" stroke-width="2" fill="#a3d977"/><g><use xlink:href="#b" transform="matrix(1,0,0,1,365,935) translate(9.174999999999997 18.15)"/><use xlink:href="#N" transform="matrix(1,0,0,1,365,935) translate(30.824999999999996 18.15)"/><use xlink:href="#O" transform="matrix(1,0,0,1,365,935) translate(90.825 18.15)"/></g><path d="M500 930h120v40H500z" stroke="#000" stroke-width="2" fill="#a3d977"/><path d="M620 930h40v40h-40zM675.56 930H800v40H675.56z" stroke="#000" stroke-width="2" fill="#c7e8ac"/><g><use xlink:href="#b" transform="matrix(1,0,0,1,680.5555555555557,935) translate(11.674999999999997 18.15)"/><use xlink:href="#N" transform="matrix(1,0,0,1,680.5555555555557,935) translate(33.324999999999996 18.15)"/><use xlink:href="#P" transform="matrix(1,0,0,1,680.5555555555557,935) translate(93.325 18.15)"/></g><path d="M320 930h40v40h-40z" stroke="#000" stroke-width="2" fill="#7ab648"/><path d="M660 920h20v60h-20z" stroke="#000" stroke-width="2" fill="#c1e4f7"/><path d="M270 1020h80v60h-80z" stroke="#000" stroke-opacity="0" stroke-width="2" fill="#fff" fill-opacity="0"/><g><use xlink:href="#Q" transform="matrix(1,0,0,1,275,1025) translate(5.549999999999997 30.025)"/></g><path d="M360 1020h80v60h-80z" stroke="#000" stroke-opacity="0" stroke-width="2" fill="#fff" fill-opacity="0"/><g><use xlink:href="#R" transform="matrix(1,0,0,1,365,1025) translate(2.5249999999999986 30.025)"/></g><path d="M310 1019v-19.5" stroke="#000" stroke-width="2" fill="none"/><path d="M311 1020h-2v-1.03h2z"/><path d="M310 984.24l4.64 14.26h-9.28z" stroke="#000" stroke-width="2"/><path d="M400 1019v-19.5" stroke="#000" stroke-width="2" fill="none"/><path d="M401 1020h-2v-1.03h2z"/><path d="M400 984.24l4.64 14.26h-9.28z" stroke="#000" stroke-width="2"/><path d="M1160 380h120v50h-120z" stroke="#000" stroke-opacity="0" stroke-width="2" fill="#fff" fill-opacity="0"/><g><use xlink:href="#b" transform="matrix(1,0,0,1,1165,385) translate(17.674999999999997 24.4)"/><use xlink:href="#S" transform="matrix(1,0,0,1,1165,385) translate(39.324999999999996 24.4)"/></g><path d="M1170 586.8h130v96.4h-130z" stroke="#000" stroke-opacity="0" stroke-width="2" fill="#fff" fill-opacity="0"/><g><use xlink:href="#T" transform="matrix(1,0,0,1,1175,591.8) translate(23.75 14.4)"/><use xlink:href="#U" transform="matrix(1,0,0,1,1175,591.8) translate(79.60000000000001 14.4)"/><use xlink:href="#y" transform="matrix(1,0,0,1,1175,591.8) translate(6.549999999999997 36)"/><use xlink:href="#V" transform="matrix(1,0,0,1,1175,591.8) translate(73.55 36)"/><use xlink:href="#W" transform="matrix(1,0,0,1,1175,591.8) translate(6.599999999999994 57.6)"/><use xlink:href="#X" transform="matrix(1,0,0,1,1175,591.8) translate(31.599999999999994 57.6)"/><use xlink:href="#Y" transform="matrix(1,0,0,1,1175,591.8) translate(72.5 57.6)"/><use xlink:href="#Z" transform="matrix(1,0,0,1,1175,591.8) translate(22.025 79.20000000000002)"/><use xlink:href="#aa" transform="matrix(1,0,0,1,1175,591.8) translate(62.025 79.20000000000002)"/></g><defs><path d="M185-189c-5-48-123-54-124 2 14 75 158 14 163 119 3 78-121 87-175 55-17-10-28-26-33-46l33-7c5 56 141 63 141-1 0-78-155-14-162-118-5-82 145-84 179-34 5 7 8 16 11 25" id="ab"/><path d="M100-194c62-1 85 37 85 99 1 63-27 99-86 99S16-35 15-95c0-66 28-99 85-99zM99-20c44 1 53-31 53-75 0-43-8-75-51-75s-53 32-53 75 10 74 51 75" id="ac"/><path d="M96-169c-40 0-48 33-48 73s9 75 48 75c24 0 41-14 43-38l32 2c-6 37-31 61-74 61-59 0-76-41-82-99-10-93 101-131 147-64 4 7 5 14 7 22l-32 3c-4-21-16-35-41-35" id="ad"/><path d="M143 0L79-87 56-68V0H24v-261h32v163l83-92h37l-77 82L181 0h-38" id="ae"/><path d="M100-194c63 0 86 42 84 106H49c0 40 14 67 53 68 26 1 43-12 49-29l28 8c-11 28-37 45-77 45C44 4 14-33 15-96c1-61 26-98 85-98zm52 81c6-60-76-77-97-28-3 7-6 17-6 28h103" id="af"/><path d="M59-47c-2 24 18 29 38 22v24C64 9 27 4 27-40v-127H5v-23h24l9-43h21v43h35v23H59v120" id="ag"/><g id="a"><use transform="matrix(0.05,0,0,0.05,0,0)" xlink:href="#ab"/><use transform="matrix(0.05,0,0,0.05,12,0)" xlink:href="#ac"/><use transform="matrix(0.05,0,0,0.05,22,0)" xlink:href="#ad"/><use transform="matrix(0.05,0,0,0.05,31,0)" xlink:href="#ae"/><use transform="matrix(0.05,0,0,0.05,40,0)" xlink:href="#af"/><use transform="matrix(0.05,0,0,0.05,50,0)" xlink:href="#ag"/></g><path d="M33 0v-248h34V0H33" id="ah"/><path d="M30-248c87 1 191-15 191 75 0 78-77 80-158 76V0H30v-248zm33 125c57 0 124 11 124-50 0-59-68-47-124-48v98" id="ai"/><g id="b"><use transform="matrix(0.05,0,0,0.05,0,0)" xlink:href="#ah"/><use transform="matrix(0.05,0,0,0.05,5,0)" xlink:href="#ai"/></g><path d="M141-36C126-15 110 5 73 4 37 3 15-17 15-53c-1-64 63-63 125-63 3-35-9-54-41-54-24 1-41 7-42 31l-33-3c5-37 33-52 76-52 45 0 72 20 72 64v82c-1 20 7 32 28 27v20c-31 9-61-2-59-35zM48-53c0 20 12 33 32 33 41-3 63-29 60-74-43 2-92-5-92 41" id="aj"/><g id="c"><use transform="matrix(0.05,0,0,0.05,0,0)" xlink:href="#ab"/><use transform="matrix(0.05,0,0,0.05,12,0)" xlink:href="#ag"/><use transform="matrix(0.05,0,0,0.05,17,0)" xlink:href="#aj"/><use transform="matrix(0.05,0,0,0.05,27,0)" xlink:href="#ad"/><use transform="matrix(0.05,0,0,0.05,36,0)" xlink:href="#ae"/></g><path d="M190 0L58-211 59 0H30v-248h39L202-35l-2-213h31V0h-41" id="ak"/><path d="M206 0h-36l-40-164L89 0H53L-1-190h32L70-26l43-164h34l41 164 42-164h31" id="al"/><path d="M114-163C36-179 61-72 57 0H25l-1-190h30c1 12-1 29 2 39 6-27 23-49 58-41v29" id="am"/><g id="d"><use transform="matrix(0.05,0,0,0.05,0,0)" xlink:href="#ak"/><use transform="matrix(0.05,0,0,0.05,12.950000000000001,0)" xlink:href="#af"/><use transform="matrix(0.05,0,0,0.05,22.950000000000003,0)" xlink:href="#ag"/><use transform="matrix(0.05,0,0,0.05,27.950000000000003,0)" xlink:href="#al"/><use transform="matrix(0.05,0,0,0.05,40.900000000000006,0)" xlink:href="#ac"/><use transform="matrix(0.05,0,0,0.05,50.900000000000006,0)" xlink:href="#am"/><use transform="matrix(0.05,0,0,0.05,56.85,0)" xlink:href="#ae"/></g><path d="M117-194c89-4 53 116 60 194h-32v-121c0-31-8-49-39-48C34-167 62-67 57 0H25l-1-190h30c1 10-1 24 2 32 11-22 29-35 61-36" id="an"/><path d="M101-234c-31-9-42 10-38 44h38v23H63V0H32v-167H5v-23h27c-7-52 17-82 69-68v24" id="ao"/><g id="e"><use transform="matrix(0.05,0,0,0.05,0,0)" xlink:href="#ah"/><use transform="matrix(0.05,0,0,0.05,5,0)" xlink:href="#an"/><use transform="matrix(0.05,0,0,0.05,15,0)" xlink:href="#ag"/><use transform="matrix(0.05,0,0,0.05,20,0)" xlink:href="#af"/><use transform="matrix(0.05,0,0,0.05,30,0)" xlink:href="#am"/><use transform="matrix(0.05,0,0,0.05,35.95,0)" xlink:href="#ao"/><use transform="matrix(0.05,0,0,0.05,40.95,0)" xlink:href="#aj"/><use transform="matrix(0.05,0,0,0.05,50.95,0)" xlink:href="#ad"/><use transform="matrix(0.05,0,0,0.05,59.95,0)" xlink:href="#af"/></g><path d="M233-177c-1 41-23 64-60 70L243 0h-38l-65-103H63V0H30v-248c88 3 205-21 203 71zM63-129c60-2 137 13 137-47 0-61-80-42-137-45v92" id="ap"/><path d="M24-231v-30h32v30H24zM24 0v-190h32V0H24" id="aq"/><path d="M177-190C167-65 218 103 67 71c-23-6-38-20-44-43l32-5c15 47 100 32 89-28v-30C133-14 115 1 83 1 29 1 15-40 15-95c0-56 16-97 71-98 29-1 48 16 59 35 1-10 0-23 2-32h30zM94-22c36 0 50-32 50-73 0-42-14-75-50-75-39 0-46 34-46 75s6 73 46 73" id="ar"/><g id="f"><use transform="matrix(0.05,0,0,0.05,0,0)" xlink:href="#ap"/><use transform="matrix(0.05,0,0,0.05,12.950000000000001,0)" xlink:href="#aq"/><use transform="matrix(0.05,0,0,0.05,16.900000000000002,0)" xlink:href="#an"/><use transform="matrix(0.05,0,0,0.05,26.900000000000002,0)" xlink:href="#ar"/></g><path d="M115-194c53 0 69 39 70 98 0 66-23 100-70 100C84 3 66-7 56-30L54 0H23l1-261h32v101c10-23 28-34 59-34zm-8 174c40 0 45-34 45-75 0-40-5-75-45-74-42 0-51 32-51 76 0 43 10 73 51 73" id="as"/><path d="M84 4C-5 8 30-112 23-190h32v120c0 31 7 50 39 49 72-2 45-101 50-169h31l1 190h-30c-1-10 1-25-2-33-11 22-28 36-60 37" id="at"/><g id="g"><use transform="matrix(0.05,0,0,0.05,0,0)" xlink:href="#as"/><use transform="matrix(0.05,0,0,0.05,10,0)" xlink:href="#at"/><use transform="matrix(0.05,0,0,0.05,20,0)" xlink:href="#ao"/><use transform="matrix(0.05,0,0,0.05,24.65,0)" xlink:href="#ao"/><use transform="matrix(0.05,0,0,0.05,29.649999999999995,0)" xlink:href="#af"/><use transform="matrix(0.05,0,0,0.05,39.65,0)" xlink:href="#am"/></g><path d="M87 75C49 33 22-17 22-94c0-76 28-126 65-167h31c-38 41-64 92-64 168S80 34 118 75H87" id="au"/><path d="M16-127c37-31 93-2 135 6 18-1 32-8 43-16v26c-50 42-130-35-178 9v-25" id="av"/><g id="h"><use transform="matrix(0.05,0,0,0.05,0,0)" xlink:href="#au"/><use transform="matrix(0.05,0,0,0.05,5.95,0)" xlink:href="#av"/></g><path d="M101-251c82-7 93 87 43 132L82-64C71-53 59-42 53-27h129V0H18c2-99 128-94 128-182 0-28-16-43-45-43s-46 15-49 41l-32-3c6-41 34-60 81-64" id="aw"/><use transform="matrix(0.05,0,0,0.05,0,0)" xlink:href="#aw" id="i"/><path d="M80-196l47-18 7 23-49 13 32 44-20 13-27-46-27 45-21-12 33-44-49-13 8-23 47 19-2-53h23" id="ax"/><use transform="matrix(0.05,0,0,0.05,0,0)" xlink:href="#ax" id="j"/><path d="M27 0v-27h64v-190l-56 39v-29l58-41h29v221h61V0H27" id="ay"/><path d="M134-131c28 9 52 24 51 62-1 50-34 73-85 73S17-19 16-69c0-36 21-54 49-61-75-25-45-126 34-121 46 3 78 18 79 63 0 33-17 51-44 57zm-34-11c31 1 46-15 46-44 0-28-17-43-47-42-29 0-46 13-45 42 1 28 16 44 46 44zm1 122c35 0 51-18 51-52 0-30-18-46-53-46-33 0-51 17-51 47 0 34 19 51 53 51" id="az"/><path d="M101-251c68 0 85 55 85 127S166 4 100 4C33 4 14-52 14-124c0-73 17-127 87-127zm-1 229c47 0 54-49 54-102s-4-102-53-102c-51 0-55 48-55 102 0 53 5 102 54 102" id="aA"/><g id="k"><use transform="matrix(0.05,0,0,0.05,0,0)" xlink:href="#ay"/><use transform="matrix(0.05,0,0,0.05,10,0)" xlink:href="#aw"/><use transform="matrix(0.05,0,0,0.05,20,0)" xlink:href="#az"/><use transform="matrix(0.05,0,0,0.05,30,0)" xlink:href="#aA"/></g><path d="M179-190L93 31C79 59 56 82 12 73V49c39 6 53-20 64-50L1-190h34L92-34l54-156h33" id="aB"/><path d="M135-143c-3-34-86-38-87 0 15 53 115 12 119 90S17 21 10-45l28-5c4 36 97 45 98 0-10-56-113-15-118-90-4-57 82-63 122-42 12 7 21 19 24 35" id="aC"/><path d="M33-261c38 41 65 92 65 168S71 34 33 75H2C39 34 66-17 66-93S39-220 2-261h31" id="aD"/><g id="l"><use transform="matrix(0.05,0,0,0.05,0,0)" xlink:href="#as"/><use transform="matrix(0.05,0,0,0.05,10,0)" xlink:href="#aB"/><use transform="matrix(0.05,0,0,0.05,19,0)" xlink:href="#ag"/><use transform="matrix(0.05,0,0,0.05,24,0)" xlink:href="#af"/><use transform="matrix(0.05,0,0,0.05,34,0)" xlink:href="#aC"/><use transform="matrix(0.05,0,0,0.05,43,0)" xlink:href="#aD"/></g><path d="M115-194c55 1 70 41 70 98S169 2 115 4C84 4 66-9 55-30l1 105H24l-1-265h31l2 30c10-21 28-34 59-34zm-8 174c40 0 45-34 45-75s-6-73-45-74c-42 0-51 32-51 76 0 43 10 73 51 73" id="aE"/><g id="m"><use transform="matrix(0.05,0,0,0.05,0,0)" xlink:href="#aE"/><use transform="matrix(0.05,0,0,0.05,10,0)" xlink:href="#aj"/><use transform="matrix(0.05,0,0,0.05,20,0)" xlink:href="#ad"/><use transform="matrix(0.05,0,0,0.05,29,0)" xlink:href="#ae"/><use transform="matrix(0.05,0,0,0.05,38,0)" xlink:href="#af"/><use transform="matrix(0.05,0,0,0.05,48,0)" xlink:href="#ag"/></g><path d="M18-100v-36l175-74v27L42-118l151 64v27" id="aF"/><path d="M18-150v-26h174v26H18zm0 90v-26h174v26H18" id="aG"/><g id="n"><use transform="matrix(0.05,0,0,0.05,0,0)" xlink:href="#aF"/><use transform="matrix(0.05,0,0,0.05,10.5,0)" xlink:href="#aG"/></g><g id="o"><use transform="matrix(0.05,0,0,0.05,0,0)" xlink:href="#as"/><use transform="matrix(0.05,0,0,0.05,10,0)" xlink:href="#aB"/><use transform="matrix(0.05,0,0,0.05,19,0)" xlink:href="#ag"/><use transform="matrix(0.05,0,0,0.05,24,0)" xlink:href="#af"/><use transform="matrix(0.05,0,0,0.05,34,0)" xlink:href="#aC"/></g><path d="M143 4C61 4 22-44 18-125c-5-107 100-154 193-111 17 8 29 25 37 43l-32 9c-13-25-37-40-76-40-61 0-88 39-88 99 0 61 29 100 91 101 35 0 62-11 79-27v-45h-74v-28h105v86C228-13 192 4 143 4" id="aH"/><path d="M24 0v-261h32V0H24" id="aI"/><g id="p"><use transform="matrix(0.05,0,0,0.05,0,0)" xlink:href="#aH"/><use transform="matrix(0.05,0,0,0.05,14,0)" xlink:href="#aj"/><use transform="matrix(0.05,0,0,0.05,24,0)" xlink:href="#ag"/><use transform="matrix(0.05,0,0,0.05,29,0)" xlink:href="#ag"/><use transform="matrix(0.05,0,0,0.05,34,0)" xlink:href="#aI"/><use transform="matrix(0.05,0,0,0.05,37.95,0)" xlink:href="#aq"/><use transform="matrix(0.05,0,0,0.05,41.900000000000006,0)" xlink:href="#an"/><use transform="matrix(0.05,0,0,0.05,51.900000000000006,0)" xlink:href="#ae"/></g><path d="M127-220V0H93v-220H8v-28h204v28h-85" id="aJ"/><g id="q"><use transform="matrix(0.05,0,0,0.05,0,0)" xlink:href="#aJ"/><use transform="matrix(0.05,0,0,0.05,10.3,0)" xlink:href="#am"/><use transform="matrix(0.05,0,0,0.05,16.25,0)" xlink:href="#aj"/><use transform="matrix(0.05,0,0,0.05,26.25,0)" xlink:href="#an"/><use transform="matrix(0.05,0,0,0.05,36.25,0)" xlink:href="#aC"/><use transform="matrix(0.05,0,0,0.05,45.25,0)" xlink:href="#aE"/><use transform="matrix(0.05,0,0,0.05,55.25,0)" xlink:href="#ac"/><use transform="matrix(0.05,0,0,0.05,65.25,0)" xlink:href="#am"/><use transform="matrix(0.05,0,0,0.05,71.2,0)" xlink:href="#ag"/></g><path d="M160-131c35 5 61 23 61 61C221 17 115-2 30 0v-248c76 3 177-17 177 60 0 33-19 50-47 57zm-97-11c50-1 110 9 110-42 0-47-63-36-110-37v79zm0 115c55-2 124 14 124-45 0-56-70-42-124-44v89" id="aK"/><path d="M30 0v-248h33v221h125V0H30" id="aL"/><path d="M30 0v-248h187v28H63v79h144v27H63v87h162V0H30" id="aM"/><g id="r"><use transform="matrix(0.05,0,0,0.05,0,0)" xlink:href="#au"/><use transform="matrix(0.05,0,0,0.05,5.95,0)" xlink:href="#aK"/><use transform="matrix(0.05,0,0,0.05,17.95,0)" xlink:href="#aL"/><use transform="matrix(0.05,0,0,0.05,27.950000000000003,0)" xlink:href="#aM"/><use transform="matrix(0.05,0,0,0.05,39.95,0)" xlink:href="#aD"/></g><g id="s"><use transform="matrix(0.05,0,0,0.05,0,0)" xlink:href="#aH"/><use transform="matrix(0.05,0,0,0.05,14,0)" xlink:href="#af"/><use transform="matrix(0.05,0,0,0.05,24,0)" xlink:href="#ag"/></g><g id="t"><use transform="matrix(0.05,0,0,0.05,0,0)" xlink:href="#at"/><use transform="matrix(0.05,0,0,0.05,10,0)" xlink:href="#aE"/></g><g id="u"><use transform="matrix(0.05,0,0,0.05,0,0)" xlink:href="#ag"/><use transform="matrix(0.05,0,0,0.05,5,0)" xlink:href="#ac"/></g><path d="M240 0l2-218c-23 76-54 145-80 218h-23L58-218 59 0H30v-248h44l77 211c21-75 51-140 76-211h43V0h-30" id="aN"/><path d="M232-93c-1 65-40 97-104 97C67 4 28-28 28-90v-158h33c8 89-33 224 67 224 102 0 64-133 71-224h33v155" id="aO"/><g id="v"><use transform="matrix(0.05,0,0,0.05,0,0)" xlink:href="#aN"/><use transform="matrix(0.05,0,0,0.05,14.950000000000001,0)" xlink:href="#aJ"/><use transform="matrix(0.05,0,0,0.05,25.900000000000002,0)" xlink:href="#aO"/></g><g id="w"><use transform="matrix(0.05,0,0,0.05,0,0)" xlink:href="#at"/><use transform="matrix(0.05,0,0,0.05,10,0)" xlink:href="#aE"/></g><path d="M266 0h-40l-56-210L115 0H75L2-248h35L96-30l15-64 43-154h32l59 218 59-218h35" id="aP"/><path d="M30-248c118-7 216 8 213 122C240-48 200 0 122 0H30v-248zM63-27c89 8 146-16 146-99s-60-101-146-95v194" id="aQ"/><path d="M140-251c81 0 123 46 123 126C263-46 219 4 140 4 59 4 17-45 17-125s42-126 123-126zm0 227c63 0 89-41 89-101s-29-99-89-99c-61 0-89 39-89 99S79-25 140-24" id="aR"/><g id="x"><use transform="matrix(0.05,0,0,0.05,0,0)" xlink:href="#aP"/><use transform="matrix(0.05,0,0,0.05,16.95,0)" xlink:href="#ah"/><use transform="matrix(0.05,0,0,0.05,21.95,0)" xlink:href="#ak"/><use transform="matrix(0.05,0,0,0.05,34.9,0)" xlink:href="#aQ"/><use transform="matrix(0.05,0,0,0.05,47.85,0)" xlink:href="#aR"/><use transform="matrix(0.05,0,0,0.05,61.85,0)" xlink:href="#aP"/></g><g id="y"><use transform="matrix(0.05,0,0,0.05,0,0)" xlink:href="#aE"/><use transform="matrix(0.05,0,0,0.05,10,0)" xlink:href="#aj"/><use transform="matrix(0.05,0,0,0.05,20,0)" xlink:href="#ad"/><use transform="matrix(0.05,0,0,0.05,29,0)" xlink:href="#ae"/><use transform="matrix(0.05,0,0,0.05,38,0)" xlink:href="#af"/><use transform="matrix(0.05,0,0,0.05,48,0)" xlink:href="#ag"/><use transform="matrix(0.05,0,0,0.05,53,0)" xlink:href="#aC"/></g><g id="z"><use transform="matrix(0.05,0,0,0.05,0,0)" xlink:href="#aq"/><use transform="matrix(0.05,0,0,0.05,3.95,0)" xlink:href="#an"/></g><path d="M106-169C34-169 62-67 57 0H25v-261h32l-1 103c12-21 28-36 61-36 89 0 53 116 60 194h-32v-121c2-32-8-49-39-48" id="aS"/><path d="M68-38c1 34 0 65-14 84H32c9-13 17-26 17-46H33v-38h35" id="aT"/><g id="A"><use transform="matrix(0.05,0,0,0.05,0,0)" xlink:href="#ao"/><use transform="matrix(0.05,0,0,0.05,5,0)" xlink:href="#aI"/><use transform="matrix(0.05,0,0,0.05,8.95,0)" xlink:href="#aq"/><use transform="matrix(0.05,0,0,0.05,12.899999999999999,0)" xlink:href="#ar"/><use transform="matrix(0.05,0,0,0.05,22.9,0)" xlink:href="#aS"/><use transform="matrix(0.05,0,0,0.05,32.9,0)" xlink:href="#ag"/><use transform="matrix(0.05,0,0,0.05,37.9,0)" xlink:href="#aT"/></g><g id="B"><use transform="matrix(0.05,0,0,0.05,0,0)" xlink:href="#as"/><use transform="matrix(0.05,0,0,0.05,10,0)" xlink:href="#aB"/><use transform="matrix(0.05,0,0,0.05,19,0)" xlink:href="#ag"/><use transform="matrix(0.05,0,0,0.05,24,0)" xlink:href="#af"/><use transform="matrix(0.05,0,0,0.05,34,0)" xlink:href="#aC"/></g><g id="C"><use transform="matrix(0.05,0,0,0.05,0,0)" xlink:href="#af"/><use transform="matrix(0.05,0,0,0.05,10,0)" xlink:href="#aj"/><use transform="matrix(0.05,0,0,0.05,20,0)" xlink:href="#ad"/><use transform="matrix(0.05,0,0,0.05,29,0)" xlink:href="#aS"/></g><g id="D"><use transform="matrix(0.05,0,0,0.05,0,0)" xlink:href="#ai"/><use transform="matrix(0.05,0,0,0.05,12,0)" xlink:href="#aj"/><use transform="matrix(0.05,0,0,0.05,22,0)" xlink:href="#ad"/><use transform="matrix(0.05,0,0,0.05,31,0)" xlink:href="#ae"/><use transform="matrix(0.05,0,0,0.05,40,0)" xlink:href="#af"/><use transform="matrix(0.05,0,0,0.05,50,0)" xlink:href="#ag"/></g><path d="M205 0l-28-72H64L36 0H1l101-248h38L239 0h-34zm-38-99l-47-123c-12 45-31 82-46 123h93" id="aU"/><path d="M210-169c-67 3-38 105-44 169h-31v-121c0-29-5-50-35-48C34-165 62-65 56 0H25l-1-190h30c1 10-1 24 2 32 10-44 99-50 107 0 11-21 27-35 58-36 85-2 47 119 55 194h-31v-121c0-29-5-49-35-48" id="aV"/><g id="E"><use transform="matrix(0.05,0,0,0.05,0,0)" xlink:href="#aU"/><use transform="matrix(0.05,0,0,0.05,12,0)" xlink:href="#aC"/><use transform="matrix(0.05,0,0,0.05,21,0)" xlink:href="#aC"/><use transform="matrix(0.05,0,0,0.05,30,0)" xlink:href="#af"/><use transform="matrix(0.05,0,0,0.05,40,0)" xlink:href="#aV"/><use transform="matrix(0.05,0,0,0.05,54.95,0)" xlink:href="#as"/><use transform="matrix(0.05,0,0,0.05,64.95,0)" xlink:href="#aI"/><use transform="matrix(0.05,0,0,0.05,68.9,0)" xlink:href="#af"/><use transform="matrix(0.05,0,0,0.05,78.9,0)" xlink:href="#am"/></g><path d="M9 0v-24l116-142H16v-24h144v24L44-24h123V0H9" id="aW"/><g id="F"><use transform="matrix(0.05,0,0,0.05,0,0)" xlink:href="#ab"/><use transform="matrix(0.05,0,0,0.05,12,0)" xlink:href="#af"/><use transform="matrix(0.05,0,0,0.05,22,0)" xlink:href="#am"/><use transform="matrix(0.05,0,0,0.05,27.950000000000003,0)" xlink:href="#aq"/><use transform="matrix(0.05,0,0,0.05,31.899999999999995,0)" xlink:href="#aj"/><use transform="matrix(0.05,0,0,0.05,41.9,0)" xlink:href="#aI"/><use transform="matrix(0.05,0,0,0.05,45.85,0)" xlink:href="#aq"/><use transform="matrix(0.05,0,0,0.05,49.800000000000004,0)" xlink:href="#aW"/><use transform="matrix(0.05,0,0,0.05,58.800000000000004,0)" xlink:href="#af"/><use transform="matrix(0.05,0,0,0.05,68.80000000000001,0)" xlink:href="#am"/></g><g id="G"><use transform="matrix(0.05,0,0,0.05,0,0)" xlink:href="#aH"/><use transform="matrix(0.05,0,0,0.05,14,0)" xlink:href="#aj"/><use transform="matrix(0.05,0,0,0.05,24,0)" xlink:href="#ag"/><use transform="matrix(0.05,0,0,0.05,29,0)" xlink:href="#ag"/><use transform="matrix(0.05,0,0,0.05,34,0)" xlink:href="#aI"/><use transform="matrix(0.05,0,0,0.05,37.95,0)" xlink:href="#aq"/><use transform="matrix(0.05,0,0,0.05,41.900000000000006,0)" xlink:href="#an"/><use transform="matrix(0.05,0,0,0.05,51.900000000000006,0)" xlink:href="#ae"/></g><path d="M212-179c-10-28-35-45-73-45-59 0-87 40-87 99 0 60 29 101 89 101 43 0 62-24 78-52l27 14C228-24 195 4 139 4 59 4 22-46 18-125c-6-104 99-153 187-111 19 9 31 26 39 46" id="aX"/><path d="M194 0L95-120 63-95V0H30v-248h33v124l119-124h40L117-140 236 0h-42" id="aY"/><g id="H"><use transform="matrix(0.05,0,0,0.05,0,0)" xlink:href="#aU"/><use transform="matrix(0.05,0,0,0.05,12,0)" xlink:href="#aX"/><use transform="matrix(0.05,0,0,0.05,24.950000000000003,0)" xlink:href="#aY"/><use transform="matrix(0.05,0,0,0.05,36.95,0)" xlink:href="#aC"/></g><g id="I"><use transform="matrix(0.05,0,0,0.05,0,0)" xlink:href="#ak"/><use transform="matrix(0.05,0,0,0.05,12.950000000000001,0)" xlink:href="#ac"/><use transform="matrix(0.05,0,0,0.05,22.950000000000003,0)" xlink:href="#ag"/><use transform="matrix(0.05,0,0,0.05,27.950000000000003,0)" xlink:href="#aq"/><use transform="matrix(0.05,0,0,0.05,31.900000000000002,0)" xlink:href="#ao"/><use transform="matrix(0.05,0,0,0.05,36.900000000000006,0)" xlink:href="#aB"/></g><g id="J"><use transform="matrix(0.05,0,0,0.05,0,0)" xlink:href="#aQ"/><use transform="matrix(0.05,0,0,0.05,12.950000000000001,0)" xlink:href="#aj"/><use transform="matrix(0.05,0,0,0.05,22.950000000000003,0)" xlink:href="#ag"/><use transform="matrix(0.05,0,0,0.05,27.950000000000003,0)" xlink:href="#aj"/></g><path d="M108 0H70L1-190h34L89-25l56-165h34" id="aZ"/><g id="K"><use transform="matrix(0.05,0,0,0.05,0,0)" xlink:href="#aU"/><use transform="matrix(0.05,0,0,0.05,11.65,0)" xlink:href="#aZ"/><use transform="matrix(0.05,0,0,0.05,20.65,0)" xlink:href="#aj"/><use transform="matrix(0.05,0,0,0.05,30.649999999999995,0)" xlink:href="#aq"/><use transform="matrix(0.05,0,0,0.05,34.6,0)" xlink:href="#aI"/><use transform="matrix(0.05,0,0,0.05,38.550000000000004,0)" xlink:href="#aj"/><use transform="matrix(0.05,0,0,0.05,48.550000000000004,0)" xlink:href="#as"/><use transform="matrix(0.05,0,0,0.05,58.550000000000004,0)" xlink:href="#aI"/><use transform="matrix(0.05,0,0,0.05,62.5,0)" xlink:href="#af"/></g><g id="L"><use transform="matrix(0.05,0,0,0.05,0,0)" xlink:href="#as"/><use transform="matrix(0.05,0,0,0.05,10,0)" xlink:href="#at"/><use transform="matrix(0.05,0,0,0.05,20,0)" xlink:href="#ao"/><use transform="matrix(0.05,0,0,0.05,24.65,0)" xlink:href="#ao"/><use transform="matrix(0.05,0,0,0.05,29.649999999999995,0)" xlink:href="#af"/><use transform="matrix(0.05,0,0,0.05,39.65,0)" xlink:href="#am"/></g><g id="M"><use transform="matrix(0.05,0,0,0.05,0,0)" xlink:href="#ai"/><use transform="matrix(0.05,0,0,0.05,12,0)" xlink:href="#aj"/><use transform="matrix(0.05,0,0,0.05,22,0)" xlink:href="#ad"/><use transform="matrix(0.05,0,0,0.05,31,0)" xlink:href="#ae"/><use transform="matrix(0.05,0,0,0.05,40,0)" xlink:href="#af"/><use transform="matrix(0.05,0,0,0.05,50,0)" xlink:href="#ag"/><use transform="matrix(0.05,0,0,0.05,55,0)" xlink:href="#aC"/></g><g id="N"><use transform="matrix(0.05,0,0,0.05,0,0)" xlink:href="#ai"/><use transform="matrix(0.05,0,0,0.05,12,0)" xlink:href="#aj"/><use transform="matrix(0.05,0,0,0.05,22,0)" xlink:href="#ad"/><use transform="matrix(0.05,0,0,0.05,31,0)" xlink:href="#ae"/><use transform="matrix(0.05,0,0,0.05,40,0)" xlink:href="#af"/><use transform="matrix(0.05,0,0,0.05,50,0)" xlink:href="#ag"/></g><use transform="matrix(0.05,0,0,0.05,0,0)" xlink:href="#ay" id="O"/><use transform="matrix(0.05,0,0,0.05,0,0)" xlink:href="#aw" id="P"/><path d="M197 0v-115H63V0H30v-248h33v105h134v-105h34V0h-34" id="ba"/><path d="M85-194c31 0 48 13 60 33l-1-100h32l1 261h-30c-2-10 0-23-3-31C134-8 116 4 85 4 32 4 16-35 15-94c0-66 23-100 70-100zm9 24c-40 0-46 34-46 75 0 40 6 74 45 74 42 0 51-32 51-76 0-42-9-74-50-73" id="bb"/><g id="Q"><use transform="matrix(0.05,0,0,0.05,0,0)" xlink:href="#ba"/><use transform="matrix(0.05,0,0,0.05,12.950000000000001,0)" xlink:href="#af"/><use transform="matrix(0.05,0,0,0.05,22.950000000000003,0)" xlink:href="#aj"/><use transform="matrix(0.05,0,0,0.05,32.95,0)" xlink:href="#bb"/><use transform="matrix(0.05,0,0,0.05,42.95,0)" xlink:href="#af"/><use transform="matrix(0.05,0,0,0.05,52.95,0)" xlink:href="#am"/></g><g id="R"><use transform="matrix(0.05,0,0,0.05,0,0)" xlink:href="#ai"/><use transform="matrix(0.05,0,0,0.05,12,0)" xlink:href="#aj"/><use transform="matrix(0.05,0,0,0.05,22,0)" xlink:href="#aB"/><use transform="matrix(0.05,0,0,0.05,31,0)" xlink:href="#aI"/><use transform="matrix(0.05,0,0,0.05,34.95,0)" xlink:href="#ac"/><use transform="matrix(0.05,0,0,0.05,44.95,0)" xlink:href="#aj"/><use transform="matrix(0.05,0,0,0.05,54.95,0)" xlink:href="#bb"/></g><g id="S"><use transform="matrix(0.05,0,0,0.05,0,0)" xlink:href="#aE"/><use transform="matrix(0.05,0,0,0.05,10,0)" xlink:href="#aj"/><use transform="matrix(0.05,0,0,0.05,20,0)" xlink:href="#ad"/><use transform="matrix(0.05,0,0,0.05,29,0)" xlink:href="#ae"/><use transform="matrix(0.05,0,0,0.05,38,0)" xlink:href="#af"/><use transform="matrix(0.05,0,0,0.05,48,0)" xlink:href="#ag"/></g><g id="T"><use transform="matrix(0.05,0,0,0.05,0,0)" xlink:href="#ai"/><use transform="matrix(0.05,0,0,0.05,12,0)" xlink:href="#aj"/><use transform="matrix(0.05,0,0,0.05,22,0)" xlink:href="#am"/><use transform="matrix(0.05,0,0,0.05,27.950000000000003,0)" xlink:href="#ag"/><use transform="matrix(0.05,0,0,0.05,32.95,0)" xlink:href="#aq"/><use transform="matrix(0.05,0,0,0.05,36.900000000000006,0)" xlink:href="#aj"/><use transform="matrix(0.05,0,0,0.05,46.900000000000006,0)" xlink:href="#aI"/></g><g id="U"><use transform="matrix(0.05,0,0,0.05,0,0)" xlink:href="#ah"/><use transform="matrix(0.05,0,0,0.05,5,0)" xlink:href="#ai"/></g><g id="V"><use transform="matrix(0.05,0,0,0.05,0,0)" xlink:href="#au"/><use transform="matrix(0.05,0,0,0.05,5.95,0)" xlink:href="#aV"/><use transform="matrix(0.05,0,0,0.05,20.900000000000002,0)" xlink:href="#aj"/><use transform="matrix(0.05,0,0,0.05,30.900000000000002,0)" xlink:href="#aB"/></g><g id="W"><use transform="matrix(0.05,0,0,0.05,0,0)" xlink:href="#as"/><use transform="matrix(0.05,0,0,0.05,10,0)" xlink:href="#af"/></g><g id="X"><use transform="matrix(0.05,0,0,0.05,0,0)" xlink:href="#ao"/><use transform="matrix(0.05,0,0,0.05,5,0)" xlink:href="#am"/><use transform="matrix(0.05,0,0,0.05,10.95,0)" xlink:href="#ac"/><use transform="matrix(0.05,0,0,0.05,20.95,0)" xlink:href="#aV"/></g><g id="Y"><use transform="matrix(0.05,0,0,0.05,0,0)" xlink:href="#aV"/><use transform="matrix(0.05,0,0,0.05,14.950000000000001,0)" xlink:href="#ac"/><use transform="matrix(0.05,0,0,0.05,24.950000000000003,0)" xlink:href="#am"/><use transform="matrix(0.05,0,0,0.05,30.900000000000002,0)" xlink:href="#af"/></g><g id="Z"><use transform="matrix(0.05,0,0,0.05,0,0)" xlink:href="#ag"/><use transform="matrix(0.05,0,0,0.05,5,0)" xlink:href="#aS"/><use transform="matrix(0.05,0,0,0.05,15,0)" xlink:href="#aj"/><use transform="matrix(0.05,0,0,0.05,25,0)" xlink:href="#an"/></g><g id="aa"><use transform="matrix(0.05,0,0,0.05,0,0)" xlink:href="#ac"/><use transform="matrix(0.05,0,0,0.05,10,0)" xlink:href="#an"/><use transform="matrix(0.05,0,0,0.05,20,0)" xlink:href="#af"/><use transform="matrix(0.05,0,0,0.05,30,0)" xlink:href="#aD"/></g></defs></g></svg>